<svg id="svg" version="1.1" xmlns="http://www.w3.org/2000/svg" xmlns:xlink="http://www.w3.org/1999/xlink" width="400" height="246.15384615384616" viewBox="0, 0, 400,246.15384615384616"><g id="svgg"><path id="path0" d="M0.000 123.077 L 0.000 246.154 90.708 246.154 C 171.173 246.154,181.415 246.112,181.415 245.785 C 181.415 245.504,181.104 245.414,180.123 245.408 C 158.324 245.282,116.118 244.589,106.338 244.196 C 102.886 244.057,96.295 243.828,91.692 243.687 C 86.387 243.524,81.971 243.257,79.631 242.958 C 77.600 242.698,74.665 242.359,73.108 242.204 C 71.551 242.049,69.778 241.821,69.169 241.698 C 68.560 241.574,66.696 241.253,65.027 240.985 C 63.357 240.716,61.640 240.339,61.211 240.146 C 60.782 239.953,59.731 239.679,58.875 239.538 C 58.019 239.396,56.967 239.066,56.536 238.805 C 56.106 238.544,55.366 238.251,54.892 238.154 C 54.418 238.057,53.643 237.775,53.169 237.528 C 52.695 237.282,51.200 236.563,49.846 235.932 C 48.492 235.301,47.218 234.637,47.015 234.456 C 46.812 234.275,46.352 233.858,45.992 233.529 C 45.633 233.200,44.941 232.684,44.454 232.384 C 43.967 232.083,43.569 231.759,43.569 231.664 C 43.569 231.569,43.265 231.307,42.892 231.083 C 41.505 230.248,35.938 224.016,35.938 223.298 C 35.938 223.184,35.723 222.896,35.459 222.657 C 35.195 222.419,34.767 221.820,34.509 221.327 C 34.090 220.528,33.413 219.276,32.161 216.985 C 31.939 216.578,31.756 216.077,31.755 215.870 C 31.755 215.663,31.585 215.253,31.379 214.959 C 30.810 214.147,29.551 211.028,29.065 209.226 C 28.827 208.344,28.506 207.386,28.351 207.097 C 28.197 206.808,27.897 205.497,27.686 204.184 C 27.475 202.871,27.134 201.540,26.928 201.226 C 26.722 200.912,26.405 199.677,26.223 198.482 C 26.041 197.286,25.775 196.008,25.633 195.641 C 25.490 195.274,25.197 193.668,24.982 192.072 C 24.766 190.475,24.439 188.394,24.255 187.446 C 23.903 185.636,23.525 181.973,23.137 176.615 C 23.010 174.855,22.739 171.754,22.535 169.723 C 22.331 167.692,22.049 163.372,21.907 160.123 C 21.765 156.874,21.460 152.332,21.229 150.031 C 20.610 143.877,20.607 105.056,21.225 98.954 C 21.452 96.720,21.758 92.178,21.907 88.862 C 22.056 85.545,22.393 80.782,22.656 78.277 C 22.920 75.772,23.248 72.228,23.386 70.400 C 23.708 66.148,24.049 63.153,24.353 61.908 C 24.486 61.366,24.720 59.372,24.874 57.477 C 25.054 55.266,25.318 53.628,25.611 52.906 C 25.872 52.264,26.139 50.784,26.233 49.460 C 26.323 48.183,26.617 46.474,26.884 45.662 C 27.152 44.849,27.470 43.132,27.590 41.846 C 27.711 40.560,28.023 38.843,28.283 38.031 C 28.543 37.218,28.921 36.000,29.123 35.323 C 29.801 33.049,32.372 27.323,32.715 27.323 C 32.809 27.323,33.032 26.908,33.211 26.400 C 33.390 25.892,33.730 25.255,33.968 24.985 C 34.206 24.714,34.536 24.229,34.702 23.908 C 34.988 23.354,35.977 22.005,37.052 20.702 C 38.008 19.543,41.560 16.056,42.495 15.359 C 43.018 14.968,43.502 14.583,43.569 14.502 C 43.882 14.128,46.286 12.569,47.272 12.102 C 47.876 11.816,48.535 11.471,48.738 11.335 C 48.942 11.200,49.495 10.918,49.969 10.709 C 50.443 10.501,51.108 10.171,51.446 9.977 C 52.656 9.284,55.307 8.123,55.680 8.123 C 55.889 8.123,56.894 7.851,57.913 7.518 C 58.931 7.186,61.078 6.741,62.683 6.530 C 64.287 6.319,66.209 6.043,66.954 5.917 C 67.698 5.791,71.298 5.567,74.954 5.420 C 82.733 5.107,87.958 4.776,90.708 4.424 C 91.791 4.285,96.775 4.007,101.785 3.806 C 106.794 3.605,113.052 3.285,115.692 3.096 C 118.332 2.906,126.806 2.628,134.523 2.478 C 142.240 2.328,152.098 2.070,156.431 1.904 C 166.849 1.506,226.496 1.517,240.615 1.919 C 246.302 2.082,257.932 2.328,266.462 2.467 C 283.934 2.751,294.957 3.083,298.954 3.445 C 300.443 3.580,303.988 3.797,306.831 3.928 C 310.033 4.076,312.562 4.316,313.477 4.558 C 314.289 4.774,316.505 5.112,318.400 5.310 C 320.295 5.508,322.345 5.827,322.954 6.018 C 323.563 6.210,324.782 6.439,325.662 6.529 C 327.420 6.706,327.686 6.763,331.856 7.837 C 334.500 8.518,335.289 8.818,337.354 9.932 C 337.760 10.151,338.480 10.501,338.954 10.709 C 339.428 10.918,339.982 11.200,340.185 11.335 C 340.388 11.471,341.024 11.805,341.598 12.078 C 342.826 12.663,346.195 14.836,347.077 15.613 C 348.871 17.193,353.810 22.294,354.398 23.173 C 354.771 23.732,355.380 24.645,355.751 25.202 C 356.122 25.759,356.650 26.658,356.924 27.200 C 357.199 27.742,357.804 28.849,358.270 29.662 C 359.642 32.052,360.961 34.956,361.229 36.175 C 361.332 36.643,361.618 37.419,361.866 37.898 C 362.113 38.377,362.433 39.513,362.577 40.422 C 362.720 41.332,363.051 42.439,363.313 42.884 C 363.574 43.329,363.898 44.379,364.032 45.217 C 364.166 46.056,364.409 46.990,364.571 47.293 C 364.733 47.596,365.066 49.070,365.311 50.568 C 365.556 52.066,365.929 53.957,366.139 54.769 C 366.350 55.582,366.687 58.074,366.890 60.308 C 367.092 62.542,367.420 65.422,367.618 66.708 C 367.816 67.994,368.154 72.148,368.370 75.938 C 368.585 79.729,368.861 83.385,368.983 84.062 C 369.105 84.738,369.325 88.062,369.471 91.446 C 369.725 97.314,369.893 99.787,370.490 106.462 C 370.819 110.137,370.622 138.032,370.246 141.046 C 370.103 142.197,369.813 146.572,369.602 150.769 C 369.391 154.966,369.058 159.508,368.862 160.862 C 368.667 162.215,368.382 165.483,368.230 168.123 C 368.078 170.763,367.799 173.754,367.610 174.769 C 367.421 175.785,367.098 178.443,366.893 180.677 C 366.687 182.911,366.347 185.569,366.135 186.585 C 365.924 187.600,365.595 189.649,365.404 191.138 C 365.214 192.628,364.841 194.732,364.577 195.815 C 364.312 196.898,364.020 198.394,363.926 199.138 C 363.833 199.883,363.560 200.880,363.320 201.354 C 363.080 201.828,362.804 202.992,362.709 203.939 C 362.613 204.886,362.279 206.437,361.967 207.385 C 361.656 208.332,361.266 209.717,361.101 210.462 C 360.936 211.206,360.607 212.148,360.369 212.554 C 360.131 212.960,359.865 213.696,359.777 214.190 C 359.690 214.684,359.410 215.353,359.156 215.676 C 358.902 215.999,358.573 216.713,358.425 217.262 C 358.277 217.811,357.945 218.451,357.687 218.685 C 357.429 218.918,357.149 219.478,357.064 219.930 C 356.979 220.381,356.707 221.011,356.458 221.329 C 356.210 221.647,355.767 222.378,355.475 222.954 C 355.183 223.529,354.843 224.000,354.719 224.000 C 354.596 224.000,354.419 224.249,354.327 224.554 C 353.855 226.108,348.295 232.058,345.707 233.780 C 344.939 234.290,343.853 235.012,343.294 235.385 C 342.735 235.757,341.778 236.286,341.169 236.560 C 340.560 236.833,339.674 237.262,339.200 237.513 C 338.726 237.764,337.951 238.053,337.477 238.155 C 337.003 238.257,336.359 238.542,336.047 238.787 C 335.734 239.032,334.847 239.368,334.077 239.534 C 333.307 239.699,332.372 239.986,331.999 240.171 C 330.373 240.975,322.579 241.838,312.369 242.344 C 308.240 242.548,304.142 242.822,303.262 242.952 C 302.382 243.082,298.782 243.307,295.262 243.452 C 286.269 243.821,281.506 244.114,277.662 244.535 C 275.142 244.811,260.352 245.414,256.062 245.415 C 255.733 245.415,255.508 245.566,255.508 245.785 C 255.508 246.112,263.699 246.154,327.754 246.154 L 400.000 246.154 400.000 123.077 L 400.000 0.000 200.000 0.000 L 0.000 0.000 0.000 123.077 M162.216 74.461 C 161.703 75.079,161.807 172.744,162.322 173.258 C 162.696 173.633,164.027 173.195,164.947 172.395 C 165.164 172.207,166.272 171.572,167.409 170.986 C 169.999 169.649,170.846 169.174,172.288 168.246 C 174.236 166.992,174.365 166.915,175.619 166.250 C 176.289 165.894,177.120 165.412,177.465 165.179 C 179.107 164.068,180.111 163.481,180.638 163.324 C 180.956 163.229,181.692 162.831,182.274 162.438 C 182.856 162.045,183.419 161.723,183.524 161.723 C 183.629 161.723,183.925 161.533,184.182 161.301 C 184.760 160.778,186.075 159.962,187.692 159.125 C 188.369 158.774,189.477 158.165,190.154 157.771 C 190.831 157.376,191.883 156.823,192.492 156.541 C 193.102 156.259,193.822 155.836,194.092 155.601 C 194.756 155.025,197.553 153.354,197.853 153.354 C 197.985 153.354,198.244 153.173,198.428 152.951 C 198.612 152.729,199.222 152.351,199.785 152.110 C 200.347 151.869,200.876 151.560,200.960 151.424 C 201.045 151.288,201.674 150.990,202.359 150.762 C 203.044 150.535,203.660 150.204,203.728 150.028 C 203.795 149.851,204.203 149.565,204.633 149.393 C 205.063 149.220,205.719 148.830,206.091 148.526 C 206.463 148.222,207.016 147.897,207.322 147.804 C 207.627 147.711,208.098 147.437,208.369 147.193 C 208.640 146.950,210.299 146.008,212.056 145.101 C 213.813 144.194,215.530 143.234,215.872 142.968 C 216.781 142.258,219.150 140.800,219.393 140.800 C 219.508 140.800,219.965 140.523,220.409 140.185 C 220.853 139.846,221.316 139.569,221.439 139.568 C 221.561 139.568,222.160 139.236,222.769 138.831 C 223.378 138.426,224.010 138.094,224.172 138.093 C 224.335 138.093,224.960 137.760,225.562 137.354 C 226.164 136.948,226.765 136.615,226.898 136.615 C 227.031 136.615,227.279 136.448,227.449 136.243 C 227.618 136.039,228.213 135.650,228.771 135.380 C 229.328 135.110,230.505 134.455,231.385 133.926 C 232.265 133.396,233.926 132.483,235.077 131.897 C 236.228 131.310,237.207 130.745,237.253 130.640 C 237.300 130.534,237.798 130.217,238.361 129.935 C 238.924 129.652,239.606 129.227,239.877 128.989 C 240.392 128.536,240.996 128.192,243.134 127.130 C 243.842 126.779,244.478 126.399,244.548 126.286 C 244.618 126.173,245.229 125.882,245.907 125.638 C 246.584 125.394,247.138 125.054,247.138 124.881 C 247.138 124.708,247.474 124.393,247.885 124.180 C 248.607 123.807,248.681 123.323,248.016 123.323 C 247.837 123.323,247.546 123.148,247.369 122.935 C 247.191 122.721,246.524 122.281,245.885 121.958 C 245.246 121.634,244.685 121.270,244.638 121.150 C 244.592 121.029,244.055 120.690,243.446 120.395 C 241.339 119.376,240.613 118.943,240.146 118.427 C 239.889 118.141,239.568 117.908,239.434 117.908 C 239.062 117.908,231.109 113.467,230.320 112.818 C 229.937 112.504,229.530 112.246,229.416 112.246 C 229.302 112.246,228.341 111.702,227.281 111.037 C 226.221 110.372,224.412 109.333,223.262 108.729 C 222.111 108.125,220.449 107.150,219.569 106.562 C 217.827 105.399,216.604 104.693,214.892 103.862 C 214.283 103.566,213.618 103.190,213.415 103.026 C 213.212 102.861,212.658 102.580,212.185 102.401 C 211.711 102.221,211.094 101.871,210.815 101.622 C 210.535 101.373,210.214 101.169,210.100 101.169 C 209.986 101.169,209.500 100.870,209.021 100.504 C 208.132 99.826,206.954 99.137,205.140 98.234 C 204.583 97.956,203.988 97.561,203.818 97.357 C 203.648 97.152,203.318 96.985,203.084 96.985 C 202.850 96.985,202.171 96.654,201.576 96.251 C 200.980 95.847,200.407 95.515,200.302 95.512 C 200.127 95.508,198.430 94.427,196.923 93.361 C 196.585 93.121,195.809 92.677,195.200 92.374 C 192.964 91.261,190.296 89.727,185.783 86.963 C 185.073 86.528,183.938 85.891,183.262 85.547 C 182.585 85.202,181.513 84.617,180.880 84.245 C 180.247 83.873,179.297 83.328,178.769 83.032 C 178.240 82.737,177.097 82.020,176.227 81.440 C 175.358 80.860,173.711 79.902,172.569 79.312 C 171.426 78.722,170.220 78.026,169.889 77.766 C 169.558 77.505,169.145 77.292,168.970 77.292 C 168.796 77.292,168.324 77.015,167.922 76.677 C 167.520 76.338,167.057 76.062,166.894 76.062 C 166.731 76.062,165.971 75.680,165.206 75.213 C 163.434 74.131,162.653 73.935,162.216 74.461 " stroke="none" fill="#fbf7f6" fill-rule="evenodd"></path><path id="path1" d="M141.785 4.212 C 139.009 4.295,135.188 4.493,133.292 4.653 C 131.397 4.813,127.409 5.036,124.431 5.148 C 121.452 5.261,118.572 5.471,118.031 5.616 C 117.170 5.846,110.068 5.992,86.965 6.252 C 83.457 6.291,83.185 6.329,82.635 6.845 C 81.843 7.589,80.717 7.877,78.600 7.877 C 77.625 7.877,75.464 7.985,73.798 8.117 C 72.132 8.249,68.609 8.402,65.969 8.457 L 61.169 8.556 56.380 10.801 C 53.746 12.036,51.493 13.046,51.372 13.046 C 51.252 13.046,50.817 13.286,50.406 13.578 C 49.995 13.871,49.037 14.255,48.278 14.431 C 47.519 14.608,46.867 14.839,46.829 14.945 C 46.311 16.403,45.599 17.069,44.062 17.535 C 42.118 18.124,41.939 18.259,41.745 19.292 C 41.571 20.220,40.989 20.817,39.330 21.771 C 38.376 22.319,38.010 22.749,37.285 24.170 C 36.800 25.122,36.100 26.156,35.731 26.467 C 35.306 26.824,34.941 27.489,34.741 28.270 C 34.567 28.950,34.036 30.150,33.562 30.938 C 32.360 32.934,31.837 34.307,31.517 36.308 C 30.862 40.411,30.672 41.105,29.601 43.323 L 28.472 45.662 28.291 49.354 C 28.191 51.385,27.927 54.431,27.704 56.123 C 27.481 57.815,27.140 60.418,26.946 61.908 C 26.753 63.397,26.484 65.335,26.348 66.215 C 26.213 67.095,26.100 68.456,26.097 69.239 C 26.092 70.807,25.609 72.218,24.829 72.945 C 24.354 73.388,24.326 73.651,24.390 77.139 C 24.427 79.187,24.329 82.025,24.171 83.446 C 23.124 92.867,23.311 160.037,24.394 163.658 C 24.734 164.794,24.898 166.312,24.991 169.196 C 25.183 175.081,25.302 176.586,25.698 178.152 C 25.896 178.931,26.133 180.954,26.225 182.646 C 26.376 185.421,26.595 186.890,27.707 192.615 C 27.891 193.563,28.049 195.446,28.058 196.800 C 28.079 200.124,28.376 201.299,29.407 202.150 C 30.275 202.865,30.493 203.671,30.881 207.584 C 31.055 209.339,32.085 211.452,33.433 212.824 C 34.116 213.517,34.474 214.132,34.584 214.793 C 35.103 217.943,35.231 218.315,36.038 219.024 C 37.098 219.954,38.606 222.021,39.621 223.936 C 40.116 224.869,40.880 225.832,41.571 226.391 C 42.196 226.896,43.268 227.867,43.952 228.547 C 44.636 229.228,45.633 229.996,46.167 230.255 C 46.702 230.514,47.541 230.929,48.034 231.178 C 48.526 231.427,49.118 231.631,49.350 231.631 C 49.582 231.631,50.065 231.942,50.424 232.323 C 50.783 232.704,51.427 233.220,51.856 233.471 C 52.284 233.722,52.750 234.180,52.891 234.489 C 53.306 235.399,54.203 235.811,56.528 236.159 C 57.732 236.338,59.158 236.708,59.697 236.980 C 60.236 237.252,61.293 237.550,62.047 237.642 C 63.334 237.799,64.982 238.532,64.987 238.950 C 64.988 239.054,66.124 239.157,67.510 239.180 C 69.025 239.205,70.473 239.372,71.138 239.599 C 72.641 240.112,74.970 240.430,79.508 240.743 C 81.606 240.888,84.486 241.106,85.908 241.228 C 87.329 241.350,90.744 241.455,93.496 241.463 C 98.175 241.476,98.599 241.515,100.020 242.068 C 101.729 242.733,99.796 242.713,123.704 242.319 C 131.339 242.194,135.017 242.222,136.135 242.416 C 137.073 242.579,142.758 242.749,150.031 242.832 C 156.800 242.910,172.695 243.108,185.354 243.271 C 227.077 243.811,261.199 243.405,274.708 242.207 C 276.265 242.069,281.415 241.853,286.154 241.726 C 294.364 241.507,296.496 241.349,299.569 240.733 C 300.351 240.576,305.134 240.411,310.892 240.342 L 320.862 240.222 323.155 239.495 C 324.416 239.096,325.756 238.769,326.131 238.769 C 326.507 238.769,327.358 238.600,328.022 238.392 C 328.687 238.185,330.228 237.947,331.446 237.864 C 333.538 237.722,333.706 237.668,334.458 236.903 C 335.055 236.296,335.549 236.053,336.427 235.936 C 338.050 235.719,339.104 235.137,340.133 233.890 C 340.975 232.871,342.495 231.877,343.214 231.877 C 343.401 231.877,343.765 231.643,344.023 231.358 C 344.281 231.073,344.991 230.577,345.600 230.256 C 347.131 229.451,347.672 228.938,348.308 227.692 C 348.609 227.101,349.657 225.777,350.635 224.750 C 352.672 222.612,352.885 222.274,353.242 220.609 C 353.453 219.623,353.778 219.116,354.967 217.913 C 356.110 216.755,356.431 216.266,356.431 215.680 C 356.431 215.256,356.681 214.628,357.007 214.234 C 357.324 213.852,357.717 212.997,357.881 212.336 C 358.044 211.675,358.381 210.733,358.630 210.244 C 358.880 209.754,359.209 208.541,359.363 207.548 C 359.516 206.555,359.816 205.337,360.028 204.840 C 360.241 204.344,360.580 203.385,360.782 202.708 C 360.984 202.031,361.328 201.200,361.545 200.862 C 361.843 200.398,361.985 199.272,362.118 196.308 C 362.242 193.566,362.493 191.434,362.947 189.292 C 363.305 187.600,363.703 185.551,363.832 184.738 C 363.960 183.926,364.226 182.320,364.423 181.169 C 364.620 180.018,364.906 177.826,365.059 176.298 C 365.214 174.747,365.566 172.898,365.856 172.113 C 366.334 170.822,366.378 170.179,366.401 164.185 C 366.415 160.545,366.611 155.322,366.844 152.369 C 367.929 138.630,368.599 120.437,368.363 111.138 C 368.300 108.682,367.105 95.364,366.920 95.055 C 366.733 94.744,366.494 88.678,366.275 78.646 L 366.055 68.554 365.163 64.000 C 364.673 61.495,364.177 58.172,364.061 56.615 C 363.785 52.898,363.492 51.364,362.746 49.723 C 362.346 48.843,362.072 47.680,361.964 46.400 C 361.838 44.904,361.653 44.216,361.195 43.539 C 360.194 42.059,359.606 40.170,359.509 38.125 C 359.409 36.027,359.149 35.315,358.397 35.076 C 358.115 34.986,357.469 34.132,356.898 33.091 C 356.347 32.086,355.803 31.207,355.690 31.137 C 355.576 31.067,355.297 30.429,355.068 29.720 C 354.840 29.011,354.229 27.766,353.712 26.954 C 353.194 26.142,352.697 25.177,352.607 24.810 C 352.491 24.335,352.053 23.922,351.086 23.376 C 349.601 22.538,348.809 21.788,347.899 20.361 C 346.900 18.791,345.499 17.629,343.278 16.529 C 342.109 15.950,340.409 14.912,339.500 14.223 C 338.590 13.535,337.514 12.832,337.108 12.662 C 336.702 12.492,336.092 12.137,335.754 11.874 C 334.659 11.024,333.940 10.753,332.583 10.677 C 330.979 10.588,327.652 9.809,325.292 8.969 C 324.071 8.534,322.674 8.288,320.492 8.122 C 318.800 7.993,316.751 7.778,315.938 7.644 C 315.126 7.509,313.188 7.271,311.631 7.114 C 310.074 6.957,308.334 6.674,307.765 6.485 C 306.152 5.950,299.226 5.558,290.338 5.498 C 282.573 5.446,274.845 5.175,266.585 4.665 C 256.521 4.045,159.254 3.691,141.785 4.212 M165.326 71.612 C 165.886 71.866,166.772 72.458,167.295 72.927 C 167.818 73.397,168.523 73.867,168.862 73.972 C 170.635 74.523,172.496 75.648,173.296 76.654 C 173.969 77.499,174.355 77.759,175.086 77.859 C 175.636 77.934,176.444 78.330,177.055 78.822 C 177.626 79.282,178.628 79.985,179.282 80.383 C 179.937 80.782,180.830 81.405,181.267 81.769 C 181.704 82.133,182.608 82.565,183.277 82.728 C 184.936 83.134,187.932 84.817,189.239 86.076 C 189.412 86.244,189.911 86.448,190.346 86.531 C 191.686 86.785,192.101 87.232,191.799 88.098 C 191.507 88.938,192.002 89.284,193.100 89.009 C 193.814 88.829,195.449 89.392,196.496 90.178 C 196.934 90.507,197.942 91.119,198.735 91.538 C 199.529 91.957,200.590 92.662,201.094 93.104 C 202.172 94.049,203.313 94.735,204.677 95.256 C 206.008 95.766,207.301 96.478,209.342 97.824 C 210.284 98.446,211.232 98.954,211.450 98.954 C 211.668 98.954,212.153 99.274,212.527 99.665 C 212.931 100.086,214.078 100.708,215.343 101.191 C 216.792 101.745,217.714 102.267,218.215 102.818 C 218.622 103.264,219.676 104.000,220.559 104.453 C 222.594 105.497,224.040 106.408,224.455 106.909 C 224.634 107.124,225.384 107.476,226.123 107.691 C 226.862 107.906,227.822 108.298,228.256 108.563 C 228.691 108.828,229.274 109.045,229.552 109.045 C 230.226 109.046,231.586 110.073,232.156 111.011 C 232.409 111.426,232.920 111.872,233.292 112.001 C 233.665 112.131,234.283 112.405,234.666 112.610 C 235.049 112.816,235.489 112.985,235.642 112.985 C 236.269 112.985,240.133 115.071,240.870 115.807 C 241.305 116.243,242.645 117.127,243.846 117.773 C 245.048 118.419,246.236 119.128,246.486 119.349 C 246.737 119.571,247.390 119.918,247.937 120.122 C 248.485 120.326,249.011 120.658,249.106 120.862 C 249.202 121.065,249.469 121.563,249.701 121.969 C 249.933 122.375,250.184 122.902,250.259 123.138 C 250.334 123.375,250.494 123.569,250.613 123.569 C 250.733 123.569,250.831 124.023,250.831 124.578 C 250.831 126.160,249.705 127.145,247.624 127.382 C 245.851 127.585,245.169 127.853,245.169 128.351 C 245.169 128.926,244.305 129.782,243.303 130.200 C 242.216 130.653,241.053 131.310,239.911 132.114 C 238.461 133.135,236.812 133.910,235.513 134.181 C 234.433 134.406,234.009 134.668,232.985 135.740 C 231.720 137.065,230.479 137.848,228.862 138.341 C 228.355 138.496,227.469 139.019,226.893 139.504 C 226.317 139.988,225.164 140.696,224.330 141.077 C 223.438 141.484,222.593 142.079,222.278 142.522 C 221.855 143.115,221.578 143.265,220.963 143.230 C 220.407 143.198,219.593 143.548,218.113 144.454 C 216.974 145.152,215.934 145.723,215.802 145.723 C 215.670 145.723,214.700 146.547,213.645 147.555 C 211.592 149.517,210.555 150.003,208.561 149.938 C 207.647 149.908,207.478 149.990,207.152 150.621 C 206.673 151.547,205.420 152.311,203.909 152.598 C 202.211 152.920,201.527 153.218,200.581 154.043 C 200.126 154.440,199.311 154.990,198.769 155.267 C 198.228 155.543,196.898 156.607,195.815 157.631 C 194.245 159.117,193.691 159.496,193.083 159.501 C 192.663 159.505,191.943 159.782,191.483 160.116 C 191.023 160.451,190.092 161.007,189.415 161.351 C 188.738 161.696,187.643 162.356,186.982 162.819 C 186.320 163.281,185.237 163.789,184.573 163.949 C 183.568 164.190,183.092 164.525,181.714 165.960 C 179.948 167.799,177.466 169.199,175.409 169.515 C 174.675 169.628,173.998 170.018,172.923 170.950 C 172.111 171.654,171.114 172.311,170.708 172.409 C 169.917 172.601,167.631 173.970,167.631 174.251 C 167.631 175.376,163.151 176.631,162.097 175.802 C 161.719 175.505,161.093 175.262,160.705 175.262 C 160.189 175.262,160.000 175.142,160.000 174.817 C 160.000 174.573,159.713 173.991,159.362 173.525 C 158.677 172.614,158.641 169.850,159.292 168.186 C 160.383 165.396,160.358 166.501,160.406 118.608 C 160.456 68.981,160.337 72.558,161.977 71.643 C 163.063 71.037,164.041 71.028,165.326 71.612 " stroke="none" fill="#fa0404" fill-rule="evenodd"></path><path id="path2" d="M173.415 2.626 C 156.219 2.725,130.140 3.231,124.431 3.576 C 121.182 3.772,114.425 4.045,109.415 4.183 C 101.291 4.407,94.174 4.805,93.764 5.059 C 93.683 5.109,90.304 5.319,86.254 5.525 C 76.940 5.999,75.222 6.109,72.492 6.409 C 71.274 6.543,68.373 6.817,66.046 7.019 C 63.719 7.220,61.517 7.498,61.153 7.637 C 60.789 7.775,59.425 8.119,58.122 8.400 C 56.820 8.681,55.311 9.108,54.769 9.350 C 54.228 9.592,53.426 9.867,52.987 9.960 C 52.549 10.054,52.125 10.235,52.046 10.363 C 51.967 10.491,51.218 10.926,50.382 11.329 C 43.801 14.499,34.923 22.921,33.622 27.229 C 33.535 27.516,33.246 27.948,32.978 28.190 C 32.711 28.432,32.492 28.728,32.492 28.848 C 32.492 28.968,32.171 29.754,31.779 30.595 C 31.387 31.435,30.934 32.622,30.774 33.231 C 30.614 33.840,30.324 34.586,30.130 34.889 C 29.936 35.192,29.621 36.244,29.431 37.227 C 29.240 38.211,28.917 39.408,28.714 39.888 C 28.510 40.367,28.217 41.913,28.062 43.323 C 27.906 44.733,27.614 46.279,27.412 46.759 C 27.209 47.238,26.936 48.628,26.804 49.846 C 26.673 51.065,26.241 54.222,25.846 56.862 C 25.450 59.502,25.056 62.714,24.971 64.000 C 24.885 65.286,24.711 66.726,24.584 67.200 C 24.457 67.674,24.188 70.498,23.986 73.477 C 23.785 76.455,23.459 80.111,23.262 81.600 C 23.066 83.089,22.788 86.800,22.646 89.846 C 22.257 98.187,21.936 103.455,21.635 106.462 C 21.284 109.972,21.271 135.332,21.617 141.046 C 22.077 148.641,22.374 154.077,22.645 159.825 C 22.790 162.910,23.021 166.011,23.157 166.717 C 23.294 167.423,23.618 170.935,23.877 174.523 C 24.436 182.271,25.414 190.813,26.075 193.723 C 26.337 194.874,26.626 196.591,26.719 197.538 C 26.811 198.486,27.087 199.594,27.331 200.000 C 27.575 200.406,27.900 201.458,28.053 202.338 C 28.206 203.218,28.542 204.603,28.799 205.415 C 29.057 206.228,29.432 207.502,29.633 208.246 C 30.023 209.692,31.055 212.570,31.618 213.785 C 31.807 214.191,32.142 215.041,32.363 215.673 C 32.584 216.305,32.925 216.956,33.121 217.118 C 33.317 217.281,33.477 217.543,33.477 217.700 C 33.477 217.857,33.855 218.591,34.318 219.331 C 34.780 220.071,35.469 221.175,35.849 221.785 C 37.532 224.485,41.558 229.005,44.185 231.143 C 46.710 233.199,48.275 234.215,50.708 235.375 C 55.071 237.457,55.812 237.785,56.152 237.785 C 56.350 237.785,56.944 238.005,57.473 238.275 C 58.001 238.544,59.105 238.885,59.925 239.031 C 60.745 239.178,62.246 239.505,63.262 239.758 C 64.277 240.011,66.603 240.397,68.431 240.615 C 70.258 240.833,72.086 241.121,72.492 241.255 C 72.898 241.389,75.169 241.661,77.538 241.859 C 79.908 242.058,83.452 242.383,85.415 242.584 C 90.265 243.078,100.298 243.409,118.769 243.683 C 127.298 243.809,140.037 244.081,147.077 244.286 C 154.117 244.490,169.514 244.776,181.292 244.920 C 203.281 245.189,204.308 245.229,204.308 245.813 C 204.308 246.100,206.868 246.154,220.554 246.154 C 234.012 246.154,236.800 246.097,236.800 245.822 C 236.800 245.380,239.450 245.238,253.785 244.912 C 260.899 244.751,267.317 244.471,270.743 244.171 C 273.775 243.906,279.812 243.524,284.158 243.321 C 288.505 243.118,293.058 242.844,294.277 242.712 C 296.371 242.485,299.232 242.303,309.908 241.718 C 312.412 241.581,315.957 241.306,317.785 241.107 C 319.612 240.909,322.880 240.642,325.046 240.515 C 327.212 240.387,329.317 240.156,329.723 240.000 C 330.129 239.845,331.390 239.496,332.525 239.226 C 333.660 238.956,334.987 238.521,335.475 238.260 C 335.963 237.999,336.453 237.785,336.565 237.785 C 336.773 237.785,340.256 236.195,340.923 235.796 C 341.126 235.674,341.724 235.341,342.251 235.056 C 346.016 233.022,352.223 227.082,353.935 223.877 C 354.225 223.335,354.850 222.228,355.325 221.415 C 355.801 220.603,356.366 219.551,356.581 219.077 C 356.796 218.603,357.117 218.049,357.295 217.846 C 357.472 217.643,357.806 216.894,358.038 216.181 C 358.270 215.468,358.541 214.834,358.641 214.772 C 358.742 214.710,359.235 213.355,359.739 211.761 C 360.242 210.166,360.918 208.029,361.241 207.012 C 361.564 205.995,361.988 204.096,362.184 202.791 C 362.380 201.486,362.709 200.158,362.914 199.840 C 363.119 199.522,363.414 198.320,363.569 197.169 C 363.724 196.018,364.060 194.191,364.317 193.108 C 364.573 192.025,364.907 189.817,365.060 188.201 C 365.212 186.586,365.488 184.542,365.673 183.659 C 365.857 182.776,366.075 180.997,366.157 179.704 C 366.239 178.411,366.517 175.858,366.774 174.031 C 367.339 170.025,367.663 166.476,367.989 160.735 C 368.123 158.364,368.399 155.595,368.602 154.581 C 369.328 150.950,370.061 124.166,369.723 113.646 C 369.133 95.336,368.808 89.176,368.363 87.921 C 368.300 87.743,368.137 85.472,368.002 82.875 C 367.650 76.144,367.291 71.617,366.895 68.923 C 366.706 67.637,366.425 64.868,366.270 62.769 C 366.116 60.671,365.837 58.289,365.650 57.477 C 365.463 56.665,365.193 54.948,365.048 53.662 C 364.904 52.375,364.574 50.548,364.315 49.600 C 364.056 48.652,363.768 47.323,363.675 46.646 C 363.581 45.969,363.297 45.004,363.044 44.502 C 362.791 43.999,362.368 42.725,362.104 41.671 C 361.531 39.386,360.335 35.861,359.783 34.831 C 359.566 34.425,359.387 33.926,359.385 33.723 C 359.384 33.520,359.184 33.022,358.940 32.615 C 358.697 32.209,358.347 31.489,358.163 31.015 C 357.979 30.542,357.570 29.801,357.253 29.370 C 356.936 28.939,356.677 28.519,356.677 28.436 C 356.677 27.046,349.354 18.205,346.754 16.457 C 346.187 16.076,345.376 15.513,344.952 15.205 C 343.035 13.816,341.467 12.800,341.240 12.800 C 341.103 12.800,340.563 12.509,340.040 12.154 C 339.516 11.798,338.647 11.352,338.110 11.163 C 337.572 10.973,336.960 10.663,336.751 10.473 C 336.061 9.849,327.553 7.557,324.431 7.153 C 323.280 7.005,321.618 6.728,320.738 6.539 C 317.852 5.919,316.457 5.692,314.585 5.535 C 313.569 5.450,311.575 5.162,310.154 4.894 C 308.055 4.499,305.767 4.364,297.969 4.173 C 292.689 4.043,286.375 3.827,283.938 3.691 C 278.201 3.371,259.455 3.017,231.877 2.709 C 212.095 2.487,200.311 2.471,173.415 2.626 M252.800 3.506 C 254.876 3.558,267.714 3.925,272.000 4.055 C 279.705 4.288,286.392 4.428,296.492 4.569 C 305.865 4.699,306.965 4.758,308.267 5.194 C 309.226 5.515,310.935 5.754,313.413 5.911 C 315.939 6.072,317.249 6.257,317.516 6.490 C 317.740 6.685,319.491 7.051,321.600 7.343 C 325.510 7.884,329.244 8.643,331.077 9.270 C 331.686 9.478,332.901 9.810,333.776 10.006 C 334.651 10.203,335.703 10.566,336.114 10.814 C 336.525 11.061,337.305 11.401,337.846 11.570 C 338.388 11.738,339.052 12.076,339.323 12.320 C 339.594 12.564,340.123 12.840,340.499 12.933 C 340.875 13.026,341.286 13.296,341.412 13.533 C 341.539 13.770,342.007 14.109,342.452 14.287 C 342.897 14.464,343.428 14.760,343.631 14.943 C 344.140 15.402,345.574 16.387,346.462 16.888 C 346.868 17.118,347.823 17.925,348.584 18.683 C 349.345 19.441,350.120 20.199,350.307 20.368 C 351.126 21.106,353.363 24.097,353.778 25.007 C 353.927 25.333,354.136 25.600,354.243 25.600 C 354.351 25.600,354.659 26.098,354.928 26.708 C 355.198 27.317,355.517 27.815,355.637 27.815 C 355.757 27.815,356.007 28.120,356.193 28.492 C 356.379 28.865,356.719 29.391,356.949 29.662 C 357.178 29.932,357.543 30.684,357.760 31.332 C 357.977 31.980,358.309 32.755,358.499 33.055 C 358.688 33.355,358.965 34.186,359.113 34.901 C 359.262 35.617,359.596 36.503,359.857 36.871 C 360.117 37.238,360.453 38.143,360.604 38.882 C 360.755 39.621,361.047 40.413,361.254 40.641 C 361.461 40.870,361.737 41.812,361.868 42.735 C 362.016 43.782,362.281 44.601,362.574 44.914 C 362.908 45.271,363.147 46.167,363.406 48.029 C 363.606 49.467,363.930 50.962,364.127 51.352 C 364.332 51.757,364.550 53.172,364.637 54.648 C 364.720 56.071,365.004 58.508,365.269 60.064 C 365.534 61.619,365.930 65.411,366.149 68.489 C 366.369 71.567,366.708 74.697,366.902 75.445 C 367.121 76.285,367.352 79.227,367.507 83.141 C 367.781 90.052,367.866 90.966,368.439 93.169 C 369.379 96.778,369.089 150.634,368.115 153.364 C 367.833 154.157,367.663 156.048,367.504 160.180 C 367.357 164.011,367.166 166.248,366.925 166.956 C 366.728 167.537,366.499 168.951,366.417 170.098 C 366.028 175.507,365.718 178.565,365.295 181.169 C 365.041 182.726,364.725 185.495,364.591 187.323 C 364.451 189.223,364.171 191.120,363.936 191.754 C 363.709 192.363,363.432 194.054,363.318 195.512 C 363.162 197.520,362.986 198.366,362.593 199.002 C 362.252 199.554,361.990 200.580,361.829 201.997 C 361.695 203.183,361.487 204.271,361.369 204.415 C 361.250 204.559,360.923 205.647,360.642 206.833 C 360.361 208.019,359.970 209.238,359.773 209.541 C 359.577 209.844,359.282 210.867,359.118 211.814 C 358.955 212.762,358.679 213.648,358.506 213.784 C 358.333 213.920,358.022 214.616,357.814 215.331 C 357.607 216.047,357.211 216.950,356.934 217.339 C 356.657 217.727,356.431 218.207,356.431 218.404 C 356.431 218.602,356.098 219.181,355.692 219.692 C 355.286 220.203,354.954 220.757,354.954 220.923 C 354.954 221.089,354.629 221.633,354.232 222.133 C 353.835 222.632,353.437 223.375,353.347 223.783 C 353.258 224.192,353.025 224.587,352.829 224.662 C 352.634 224.737,352.323 225.089,352.137 225.445 C 351.740 226.208,346.535 231.547,345.501 232.252 C 345.109 232.519,344.444 232.943,344.024 233.193 C 343.605 233.442,343.040 233.850,342.769 234.097 C 342.498 234.345,341.963 234.626,341.580 234.721 C 341.197 234.816,340.829 235.036,340.762 235.209 C 340.638 235.534,339.797 235.919,338.692 236.158 C 338.344 236.233,337.798 236.522,337.477 236.800 C 337.156 237.078,336.610 237.364,336.262 237.436 C 335.915 237.507,335.178 237.771,334.624 238.022 C 334.070 238.273,332.652 238.659,331.472 238.881 C 330.292 239.102,328.973 239.438,328.540 239.627 C 327.992 239.868,325.739 240.055,321.108 240.247 C 317.452 240.398,313.852 240.618,313.108 240.737 C 309.896 241.250,306.886 241.480,300.062 241.734 C 296.068 241.883,292.191 242.107,291.446 242.231 C 288.991 242.642,284.534 242.936,276.923 243.189 C 271.945 243.355,268.959 243.558,268.062 243.792 C 266.390 244.229,261.914 244.395,246.892 244.579 C 240.462 244.658,230.880 244.795,225.600 244.884 C 220.320 244.973,213.452 244.968,210.338 244.873 C 207.225 244.778,196.591 244.636,186.708 244.557 C 167.262 244.402,151.933 244.056,148.800 243.701 C 147.717 243.578,136.418 243.364,123.692 243.225 C 99.008 242.956,91.795 242.781,90.869 242.429 C 90.550 242.308,87.035 241.997,83.059 241.738 C 79.082 241.479,75.733 241.209,75.616 241.137 C 75.145 240.846,71.607 240.273,69.299 240.115 C 67.948 240.022,66.577 239.844,66.251 239.721 C 65.926 239.597,64.261 239.272,62.553 238.998 C 60.844 238.725,58.995 238.293,58.444 238.039 C 57.893 237.785,57.007 237.499,56.475 237.404 C 55.943 237.309,55.286 237.034,55.015 236.793 C 54.745 236.552,54.025 236.211,53.415 236.036 C 52.806 235.860,52.224 235.581,52.121 235.415 C 52.019 235.250,51.520 234.983,51.013 234.823 C 50.507 234.663,49.705 234.288,49.231 233.989 C 46.385 232.197,45.366 231.475,44.964 230.969 C 44.716 230.656,44.409 230.400,44.281 230.400 C 44.047 230.400,41.318 227.726,39.508 225.724 C 37.756 223.786,36.964 222.633,35.471 219.844 C 35.281 219.490,34.810 218.836,34.425 218.391 C 34.039 217.947,33.723 217.371,33.723 217.113 C 33.723 216.855,33.502 216.488,33.232 216.299 C 32.933 216.090,32.650 215.481,32.510 214.747 C 32.233 213.289,32.021 212.673,31.629 212.185 C 31.466 211.982,31.206 211.159,31.051 210.358 C 30.896 209.556,30.611 208.725,30.419 208.511 C 30.227 208.298,29.908 207.266,29.711 206.218 C 29.514 205.170,29.183 204.055,28.976 203.739 C 28.770 203.423,28.522 202.508,28.426 201.706 C 28.330 200.903,28.032 199.884,27.764 199.442 C 27.431 198.891,27.200 197.845,27.031 196.119 C 26.895 194.734,26.616 192.769,26.411 191.754 C 25.841 188.932,25.653 187.383,25.219 181.908 C 25.000 179.132,24.723 176.363,24.605 175.754 C 24.487 175.145,24.217 171.766,24.004 168.246 C 23.792 164.726,23.458 160.960,23.261 159.877 C 23.027 158.584,22.818 154.525,22.651 148.062 C 22.512 142.646,22.266 137.163,22.105 135.877 C 21.714 132.756,21.704 118.746,22.089 112.985 C 22.256 110.480,22.510 104.498,22.652 99.692 C 22.839 93.394,23.040 90.163,23.372 88.123 C 23.625 86.566,23.959 82.800,24.115 79.754 C 24.270 76.708,24.455 73.938,24.526 73.600 C 24.784 72.362,25.110 69.185,25.442 64.679 C 25.645 61.924,25.901 59.922,26.079 59.708 C 26.254 59.498,26.564 57.184,26.830 54.106 C 27.146 50.454,27.409 48.617,27.694 48.056 C 27.927 47.597,28.207 46.124,28.346 44.625 C 28.480 43.181,28.760 41.669,28.969 41.266 C 29.177 40.863,29.543 39.580,29.781 38.415 C 30.020 37.251,30.451 35.859,30.738 35.322 C 31.026 34.785,31.262 34.045,31.262 33.678 C 31.262 33.311,31.538 32.490,31.877 31.853 C 32.215 31.217,32.492 30.506,32.492 30.274 C 32.492 30.042,32.825 29.434,33.231 28.923 C 33.637 28.412,33.969 27.863,33.969 27.702 C 33.969 27.542,34.298 26.976,34.701 26.444 C 35.103 25.912,35.436 25.358,35.439 25.212 C 35.443 25.067,35.723 24.687,36.062 24.369 C 36.400 24.051,36.677 23.587,36.677 23.336 C 36.677 23.086,36.954 22.756,37.292 22.601 C 37.631 22.447,37.908 22.181,37.908 22.010 C 37.908 21.425,44.066 15.508,44.675 15.508 C 44.866 15.508,45.110 15.356,45.219 15.170 C 45.327 14.985,45.866 14.605,46.416 14.327 C 46.967 14.048,47.562 13.646,47.739 13.433 C 47.916 13.220,48.204 13.046,48.380 13.046 C 48.557 13.046,49.031 12.768,49.436 12.428 C 49.840 12.088,50.646 11.642,51.227 11.437 C 51.808 11.232,52.455 10.915,52.665 10.733 C 52.875 10.550,53.655 10.261,54.400 10.090 C 55.145 9.919,56.256 9.583,56.871 9.344 C 57.485 9.105,58.648 8.835,59.455 8.744 C 60.263 8.652,61.588 8.372,62.400 8.121 C 63.973 7.634,65.129 7.520,72.478 7.129 C 75.043 6.993,77.757 6.724,78.509 6.531 C 79.414 6.299,82.553 6.093,87.780 5.922 C 92.127 5.780,96.004 5.610,96.396 5.544 C 100.603 4.841,102.319 4.682,105.846 4.665 C 108.080 4.655,113.840 4.545,118.646 4.420 C 123.452 4.296,129.822 4.132,132.800 4.056 C 135.778 3.980,139.378 3.817,140.800 3.693 C 142.222 3.569,146.590 3.460,150.509 3.451 C 154.427 3.442,157.694 3.371,157.770 3.293 C 157.880 3.179,247.854 3.381,252.800 3.506 M160.886 72.569 C 160.540 73.237,160.499 78.508,160.482 123.978 L 160.463 174.643 160.966 175.050 C 161.629 175.587,164.185 175.005,164.185 174.318 C 164.185 174.214,164.600 173.983,165.108 173.805 C 165.615 173.626,166.252 173.285,166.523 173.047 C 166.794 172.809,167.422 172.484,167.919 172.325 C 168.416 172.166,168.956 171.875,169.121 171.677 C 169.285 171.479,169.903 171.103,170.494 170.842 C 171.085 170.580,171.569 170.263,171.569 170.136 C 171.569 170.009,171.929 169.764,172.369 169.590 C 172.809 169.416,173.392 169.076,173.665 168.834 C 173.937 168.591,174.680 168.163,175.316 167.882 C 175.952 167.601,176.533 167.272,176.608 167.150 C 176.683 167.029,177.060 166.861,177.446 166.776 C 177.833 166.691,178.366 166.419,178.631 166.172 C 178.897 165.925,179.604 165.480,180.203 165.184 C 182.720 163.939,183.459 163.498,183.674 163.114 C 183.799 162.890,184.054 162.708,184.239 162.708 C 184.425 162.708,184.908 162.429,185.313 162.089 C 185.717 161.749,186.508 161.308,187.071 161.110 C 187.633 160.911,188.378 160.525,188.726 160.251 C 189.074 159.978,189.501 159.754,189.676 159.754 C 189.850 159.754,190.306 159.492,190.689 159.172 C 191.072 158.852,191.662 158.505,192.000 158.400 C 192.338 158.295,192.928 157.948,193.311 157.628 C 193.694 157.308,194.094 157.046,194.200 157.046 C 194.307 157.046,194.812 156.714,195.323 156.308 C 195.834 155.902,196.495 155.569,196.791 155.569 C 197.087 155.569,197.584 155.298,197.896 154.967 C 198.207 154.635,198.792 154.292,199.194 154.203 C 199.597 154.115,200.114 153.855,200.343 153.626 C 200.572 153.397,201.102 153.068,201.520 152.895 C 201.939 152.721,202.515 152.311,202.800 151.982 C 203.086 151.653,203.540 151.385,203.808 151.385 C 204.077 151.385,204.470 151.119,204.683 150.794 C 204.914 150.441,205.417 150.139,205.933 150.042 C 206.408 149.953,207.020 149.657,207.292 149.385 C 207.565 149.112,208.251 148.728,208.817 148.530 C 209.383 148.333,209.957 148.036,210.092 147.870 C 210.228 147.705,210.837 147.317,211.446 147.010 C 212.055 146.702,213.108 146.126,213.785 145.730 C 214.462 145.333,215.493 144.774,216.076 144.487 C 216.660 144.199,217.195 143.813,217.266 143.628 C 217.337 143.443,217.713 143.222,218.101 143.136 C 218.490 143.051,219.110 142.740,219.479 142.445 C 220.163 141.898,221.344 141.227,223.173 140.347 C 223.733 140.077,224.267 139.735,224.359 139.586 C 224.451 139.437,224.932 139.146,225.429 138.938 C 225.925 138.731,226.555 138.358,226.827 138.109 C 227.100 137.860,227.563 137.584,227.855 137.495 C 228.148 137.407,228.800 137.006,229.305 136.606 C 229.809 136.205,230.406 135.877,230.632 135.877 C 230.858 135.877,231.418 135.600,231.877 135.262 C 232.336 134.923,232.847 134.646,233.014 134.646 C 233.180 134.646,233.629 134.385,234.012 134.066 C 234.395 133.748,235.122 133.352,235.629 133.186 C 236.136 133.021,236.634 132.743,236.737 132.569 C 236.839 132.394,237.273 132.073,237.700 131.854 C 238.127 131.636,238.646 131.288,238.854 131.081 C 239.061 130.873,239.708 130.477,240.292 130.201 C 240.876 129.924,241.908 129.378,242.585 128.987 C 243.262 128.597,244.369 127.991,245.046 127.642 C 248.265 125.981,250.643 124.147,250.441 123.479 C 250.169 122.576,249.110 121.665,247.957 121.342 C 247.347 121.171,246.792 120.888,246.725 120.712 C 246.658 120.537,246.243 120.274,245.803 120.129 C 245.363 119.984,244.631 119.591,244.177 119.256 C 243.722 118.920,243.207 118.646,243.031 118.646 C 242.856 118.646,242.204 118.258,241.583 117.785 C 240.963 117.311,240.348 116.923,240.217 116.923 C 240.087 116.923,239.680 116.721,239.313 116.474 C 237.199 115.049,236.233 114.477,234.462 113.596 C 233.378 113.057,232.382 112.483,232.246 112.319 C 232.111 112.156,231.486 111.805,230.858 111.539 C 230.230 111.274,229.636 110.927,229.538 110.769 C 229.441 110.611,228.903 110.269,228.342 110.008 C 227.782 109.747,226.825 109.202,226.215 108.797 C 225.606 108.392,224.536 107.790,223.838 107.459 C 223.140 107.128,222.508 106.760,222.435 106.641 C 222.362 106.523,221.854 106.278,221.308 106.097 C 220.761 105.917,220.153 105.523,219.956 105.223 C 219.759 104.922,219.331 104.609,219.006 104.527 C 218.382 104.371,215.845 102.908,215.168 102.315 C 214.948 102.123,214.492 101.885,214.154 101.785 C 213.815 101.686,213.317 101.414,213.046 101.181 C 212.775 100.947,212.166 100.610,211.692 100.431 C 211.218 100.252,210.599 99.898,210.315 99.645 C 210.031 99.393,209.422 98.982,208.961 98.732 C 208.500 98.482,207.722 98.062,207.231 97.797 C 206.741 97.532,206.043 97.083,205.681 96.798 C 205.319 96.513,204.688 96.207,204.280 96.117 C 203.871 96.027,203.480 95.806,203.411 95.627 C 203.342 95.447,202.829 95.117,202.272 94.894 C 201.715 94.672,200.959 94.275,200.592 94.014 C 200.224 93.752,199.765 93.538,199.571 93.538 C 199.377 93.538,198.840 93.257,198.378 92.913 C 196.663 91.637,195.793 91.071,194.954 90.685 C 194.480 90.467,193.926 90.145,193.723 89.967 C 193.520 89.790,192.523 89.209,191.508 88.675 C 190.492 88.141,189.242 87.419,188.730 87.070 C 188.218 86.721,187.470 86.363,187.069 86.275 C 186.667 86.187,186.338 86.015,186.338 85.892 C 186.338 85.770,185.792 85.393,185.125 85.055 C 184.458 84.717,183.844 84.330,183.761 84.196 C 183.678 84.062,183.144 83.721,182.574 83.437 C 180.791 82.550,179.525 81.857,179.171 81.573 C 178.984 81.423,178.305 81.103,177.662 80.863 C 177.018 80.622,176.492 80.332,176.492 80.218 C 176.492 80.103,176.022 79.773,175.446 79.484 C 174.871 79.195,174.214 78.795,173.986 78.595 C 173.508 78.175,172.408 77.543,170.831 76.783 C 170.222 76.489,169.502 76.054,169.231 75.816 C 168.960 75.578,168.323 75.251,167.815 75.088 C 167.308 74.926,166.892 74.685,166.892 74.553 C 166.892 74.421,166.477 74.140,165.969 73.929 C 165.462 73.718,164.991 73.458,164.923 73.353 C 164.713 73.026,162.863 72.142,162.048 71.979 C 161.362 71.842,161.226 71.911,160.886 72.569 M164.627 73.819 C 165.480 74.308,167.252 75.339,168.566 76.112 C 169.879 76.884,171.452 77.782,172.062 78.107 C 174.373 79.342,175.647 80.092,176.123 80.496 C 176.394 80.726,176.948 81.081,177.354 81.284 C 178.622 81.920,183.942 84.935,185.206 85.735 C 185.869 86.155,186.724 86.670,187.105 86.880 C 192.404 89.794,195.787 91.774,197.692 93.076 C 198.014 93.296,200.215 94.549,202.585 95.861 C 207.429 98.544,208.325 99.061,209.295 99.733 C 209.669 99.992,210.943 100.713,212.126 101.336 C 213.309 101.959,214.443 102.606,214.646 102.775 C 214.981 103.052,216.067 103.671,217.817 104.581 C 218.171 104.766,218.870 105.191,219.368 105.527 C 220.331 106.175,221.921 107.097,223.138 107.713 C 223.545 107.919,224.486 108.466,225.231 108.928 C 225.975 109.390,226.972 109.962,227.446 110.199 C 227.920 110.436,228.631 110.848,229.025 111.115 C 229.420 111.381,230.165 111.828,230.682 112.107 C 231.198 112.387,232.703 113.238,234.025 113.998 C 235.348 114.759,237.317 115.885,238.400 116.501 C 239.483 117.118,240.667 117.855,241.031 118.140 C 241.395 118.425,242.060 118.823,242.508 119.024 C 242.956 119.226,244.043 119.821,244.923 120.349 C 245.803 120.876,247.077 121.595,247.754 121.947 C 249.564 122.887,250.050 123.650,249.212 124.233 C 248.862 124.477,248.224 124.958,247.795 125.302 C 247.366 125.646,246.738 126.064,246.400 126.231 C 244.344 127.246,239.918 129.775,238.297 130.861 C 237.666 131.284,235.215 132.706,232.852 134.022 C 230.488 135.338,228.055 136.733,227.446 137.122 C 226.417 137.780,224.310 138.988,222.797 139.785 C 221.939 140.238,217.698 142.703,216.615 143.379 C 216.142 143.675,215.311 144.194,214.769 144.532 C 213.753 145.168,207.508 148.667,205.835 149.538 C 205.315 149.809,204.577 150.280,204.196 150.585 C 203.815 150.889,203.390 151.138,203.252 151.138 C 203.113 151.138,202.637 151.415,202.194 151.754 C 201.750 152.092,201.131 152.482,200.817 152.621 C 200.503 152.760,199.582 153.256,198.769 153.724 C 197.957 154.191,196.728 154.853,196.037 155.195 C 195.347 155.537,194.582 156.038,194.338 156.309 C 194.093 156.579,193.797 156.800,193.680 156.800 C 193.562 156.800,193.053 157.069,192.549 157.397 C 191.551 158.047,188.180 159.894,186.215 160.869 C 185.538 161.205,184.486 161.869,183.877 162.344 C 183.268 162.820,182.326 163.433,181.785 163.706 C 180.235 164.488,174.520 167.733,172.062 169.228 C 171.317 169.681,169.268 170.851,167.508 171.829 C 165.748 172.807,163.995 173.869,163.612 174.188 C 162.844 174.829,161.689 174.952,161.262 174.438 C 160.888 173.988,160.859 73.803,161.232 73.105 C 161.580 72.454,162.635 72.676,164.627 73.819 " stroke="none" fill="#de5c5b" fill-rule="evenodd"></path><path id="path3" d="M165.662 1.717 C 127.080 2.628,116.444 2.930,113.600 3.197 C 112.382 3.311,107.175 3.577,102.031 3.788 C 96.886 4.000,91.791 4.286,90.708 4.424 C 87.955 4.776,82.728 5.107,74.954 5.420 C 71.298 5.567,67.698 5.791,66.954 5.917 C 66.209 6.043,64.287 6.319,62.683 6.530 C 61.078 6.741,58.931 7.186,57.913 7.518 C 56.894 7.851,55.889 8.123,55.680 8.123 C 55.307 8.123,52.656 9.284,51.446 9.977 C 51.108 10.171,50.443 10.501,49.969 10.709 C 49.495 10.918,48.942 11.200,48.738 11.335 C 48.535 11.471,47.876 11.816,47.272 12.102 C 46.286 12.569,43.882 14.128,43.569 14.502 C 43.502 14.583,43.018 14.968,42.495 15.359 C 41.560 16.056,38.008 19.543,37.052 20.702 C 35.977 22.005,34.988 23.354,34.702 23.908 C 34.536 24.229,34.206 24.714,33.968 24.985 C 33.730 25.255,33.390 25.892,33.211 26.400 C 33.032 26.908,32.809 27.323,32.715 27.323 C 32.372 27.323,29.801 33.049,29.123 35.323 C 28.921 36.000,28.543 37.218,28.283 38.031 C 28.023 38.843,27.711 40.560,27.590 41.846 C 27.470 43.132,27.152 44.849,26.884 45.662 C 26.617 46.474,26.323 48.183,26.233 49.460 C 26.139 50.784,25.872 52.264,25.611 52.906 C 25.318 53.628,25.054 55.266,24.874 57.477 C 24.720 59.372,24.486 61.366,24.353 61.908 C 24.049 63.153,23.708 66.148,23.386 70.400 C 23.248 72.228,22.920 75.772,22.656 78.277 C 22.393 80.782,22.056 85.545,21.907 88.862 C 21.758 92.178,21.452 96.720,21.225 98.954 C 20.607 105.056,20.610 143.877,21.229 150.031 C 21.460 152.332,21.765 156.874,21.907 160.123 C 22.049 163.372,22.331 167.692,22.535 169.723 C 22.739 171.754,23.010 174.855,23.137 176.615 C 23.525 181.973,23.903 185.636,24.255 187.446 C 24.439 188.394,24.766 190.475,24.982 192.072 C 25.197 193.668,25.490 195.274,25.633 195.641 C 25.775 196.008,26.041 197.286,26.223 198.482 C 26.405 199.677,26.722 200.912,26.928 201.226 C 27.134 201.540,27.475 202.871,27.686 204.184 C 27.897 205.497,28.197 206.808,28.351 207.097 C 28.506 207.386,28.827 208.344,29.065 209.226 C 29.551 211.028,30.810 214.147,31.379 214.959 C 31.585 215.253,31.755 215.663,31.755 215.870 C 31.756 216.077,31.939 216.578,32.161 216.985 C 33.413 219.276,34.090 220.528,34.509 221.327 C 34.767 221.820,35.195 222.419,35.459 222.657 C 35.723 222.896,35.938 223.184,35.938 223.298 C 35.938 224.016,41.505 230.248,42.892 231.083 C 43.265 231.307,43.569 231.569,43.569 231.664 C 43.569 231.759,43.967 232.083,44.454 232.384 C 44.941 232.684,45.633 233.200,45.992 233.529 C 46.352 233.858,46.812 234.275,47.015 234.456 C 47.218 234.637,48.492 235.301,49.846 235.932 C 51.200 236.563,52.695 237.282,53.169 237.528 C 53.643 237.775,54.418 238.057,54.892 238.154 C 55.366 238.251,56.106 238.544,56.536 238.805 C 56.967 239.066,58.019 239.396,58.875 239.538 C 59.731 239.679,60.782 239.953,61.211 240.146 C 61.640 240.339,63.357 240.716,65.027 240.985 C 66.696 241.253,68.560 241.574,69.169 241.698 C 69.778 241.821,71.551 242.049,73.108 242.204 C 74.665 242.359,77.600 242.698,79.631 242.958 C 81.971 243.257,86.387 243.524,91.692 243.687 C 96.295 243.828,102.886 244.057,106.338 244.196 C 116.118 244.589,158.324 245.282,180.123 245.408 C 181.104 245.414,181.415 245.504,181.415 245.785 C 181.415 246.108,182.851 246.154,192.862 246.154 C 202.455 246.154,204.308 246.099,204.308 245.813 C 204.308 245.229,203.281 245.189,181.292 244.920 C 169.514 244.776,154.117 244.490,147.077 244.286 C 140.037 244.081,127.298 243.809,118.769 243.683 C 100.298 243.409,90.265 243.078,85.415 242.584 C 83.452 242.383,79.908 242.058,77.538 241.859 C 75.169 241.661,72.898 241.389,72.492 241.255 C 72.086 241.121,70.258 240.833,68.431 240.615 C 66.603 240.397,64.277 240.011,63.262 239.758 C 62.246 239.505,60.745 239.178,59.925 239.031 C 59.105 238.885,58.001 238.544,57.473 238.275 C 56.944 238.005,56.350 237.785,56.152 237.785 C 55.812 237.785,55.071 237.457,50.708 235.375 C 45.380 232.834,39.230 227.209,35.849 221.785 C 35.469 221.175,34.780 220.071,34.318 219.331 C 33.855 218.591,33.477 217.857,33.477 217.700 C 33.477 217.543,33.317 217.281,33.121 217.118 C 32.925 216.956,32.584 216.305,32.363 215.673 C 32.142 215.041,31.807 214.191,31.618 213.785 C 31.055 212.570,30.023 209.692,29.633 208.246 C 29.432 207.502,29.057 206.228,28.799 205.415 C 28.542 204.603,28.206 203.218,28.053 202.338 C 27.900 201.458,27.575 200.406,27.331 200.000 C 27.087 199.594,26.811 198.486,26.719 197.538 C 26.626 196.591,26.337 194.874,26.075 193.723 C 25.414 190.813,24.436 182.271,23.877 174.523 C 23.618 170.935,23.294 167.423,23.157 166.717 C 23.021 166.011,22.790 162.910,22.645 159.825 C 22.374 154.077,22.077 148.641,21.617 141.046 C 21.271 135.332,21.284 109.972,21.635 106.462 C 21.936 103.455,22.257 98.187,22.646 89.846 C 22.788 86.800,23.066 83.089,23.262 81.600 C 23.459 80.111,23.785 76.455,23.986 73.477 C 24.188 70.498,24.457 67.674,24.584 67.200 C 24.711 66.726,24.885 65.286,24.971 64.000 C 25.056 62.714,25.450 59.502,25.846 56.862 C 26.241 54.222,26.673 51.065,26.804 49.846 C 26.936 48.628,27.209 47.238,27.412 46.759 C 27.614 46.279,27.906 44.733,28.062 43.323 C 28.217 41.913,28.510 40.367,28.714 39.888 C 28.917 39.408,29.240 38.211,29.431 37.227 C 29.621 36.244,29.936 35.192,30.130 34.889 C 30.324 34.586,30.614 33.840,30.774 33.231 C 30.934 32.622,31.387 31.435,31.779 30.595 C 32.171 29.754,32.492 28.968,32.492 28.848 C 32.492 28.728,32.711 28.432,32.978 28.190 C 33.246 27.948,33.535 27.516,33.622 27.229 C 34.923 22.921,43.801 14.499,50.382 11.329 C 51.218 10.926,51.967 10.491,52.046 10.363 C 52.125 10.235,52.549 10.054,52.987 9.960 C 53.426 9.867,54.228 9.592,54.769 9.350 C 55.311 9.108,56.820 8.681,58.122 8.400 C 59.425 8.119,60.789 7.775,61.153 7.637 C 61.517 7.498,63.719 7.220,66.046 7.019 C 68.373 6.817,71.274 6.543,72.492 6.409 C 75.222 6.109,76.940 5.999,86.254 5.525 C 90.304 5.319,93.683 5.109,93.764 5.059 C 94.172 4.807,101.272 4.408,109.292 4.187 C 114.234 4.052,121.102 3.776,124.554 3.575 C 148.075 2.208,258.700 2.288,283.938 3.691 C 286.375 3.827,292.689 4.043,297.969 4.173 C 305.766 4.363,308.055 4.499,310.154 4.894 C 311.575 5.162,313.569 5.450,314.585 5.535 C 316.457 5.692,317.852 5.919,320.738 6.539 C 321.618 6.728,323.280 7.005,324.431 7.153 C 327.553 7.557,336.061 9.849,336.751 10.473 C 336.960 10.663,337.572 10.973,338.110 11.163 C 338.647 11.352,339.516 11.798,340.040 12.154 C 340.563 12.509,341.103 12.800,341.240 12.800 C 341.467 12.800,343.035 13.816,344.952 15.205 C 345.376 15.513,346.187 16.076,346.754 16.457 C 349.354 18.205,356.677 27.046,356.677 28.436 C 356.677 28.519,356.936 28.939,357.253 29.370 C 357.570 29.801,357.979 30.542,358.163 31.015 C 358.347 31.489,358.697 32.209,358.940 32.615 C 359.184 33.022,359.384 33.520,359.385 33.723 C 359.387 33.926,359.566 34.425,359.783 34.831 C 360.335 35.861,361.531 39.386,362.104 41.671 C 362.368 42.725,362.791 43.999,363.044 44.502 C 363.297 45.004,363.581 45.969,363.675 46.646 C 363.768 47.323,364.056 48.652,364.315 49.600 C 364.574 50.548,364.904 52.375,365.048 53.662 C 365.193 54.948,365.463 56.665,365.650 57.477 C 365.837 58.289,366.116 60.671,366.270 62.769 C 366.425 64.868,366.706 67.637,366.895 68.923 C 367.291 71.617,367.650 76.144,368.002 82.875 C 368.137 85.472,368.300 87.743,368.363 87.921 C 368.808 89.176,369.133 95.336,369.723 113.646 C 370.061 124.166,369.328 150.950,368.602 154.581 C 368.399 155.595,368.123 158.364,367.989 160.735 C 367.663 166.476,367.339 170.025,366.774 174.031 C 366.517 175.858,366.239 178.411,366.157 179.704 C 366.075 180.997,365.857 182.776,365.673 183.659 C 365.488 184.542,365.212 186.586,365.060 188.201 C 364.907 189.817,364.573 192.025,364.317 193.108 C 364.060 194.191,363.724 196.018,363.569 197.169 C 363.414 198.320,363.119 199.522,362.914 199.840 C 362.709 200.158,362.380 201.486,362.184 202.791 C 361.988 204.096,361.564 205.995,361.241 207.012 C 360.918 208.029,360.242 210.166,359.739 211.761 C 359.235 213.355,358.742 214.710,358.641 214.772 C 358.541 214.834,358.270 215.468,358.038 216.181 C 357.806 216.894,357.472 217.643,357.295 217.846 C 357.117 218.049,356.796 218.603,356.581 219.077 C 356.366 219.551,355.801 220.603,355.325 221.415 C 354.850 222.228,354.225 223.335,353.935 223.877 C 352.223 227.082,346.016 233.022,342.251 235.056 C 341.724 235.341,341.126 235.674,340.923 235.796 C 340.256 236.195,336.773 237.785,336.565 237.785 C 336.453 237.785,335.963 237.999,335.475 238.260 C 334.987 238.521,333.660 238.956,332.525 239.226 C 331.390 239.496,330.129 239.845,329.723 240.000 C 329.317 240.156,327.212 240.387,325.046 240.515 C 322.880 240.642,319.612 240.909,317.785 241.107 C 315.957 241.306,312.412 241.581,309.908 241.718 C 299.232 242.303,296.371 242.485,294.277 242.712 C 293.058 242.844,288.505 243.118,284.158 243.321 C 279.812 243.524,273.775 243.906,270.743 244.171 C 267.317 244.471,260.899 244.751,253.785 244.912 C 239.450 245.238,236.800 245.380,236.800 245.822 C 236.800 246.094,238.475 246.154,246.154 246.154 C 254.304 246.154,255.508 246.106,255.508 245.785 C 255.508 245.566,255.733 245.415,256.062 245.415 C 260.352 245.414,275.142 244.811,277.662 244.535 C 281.506 244.114,286.269 243.821,295.262 243.452 C 298.782 243.307,302.382 243.082,303.262 242.952 C 304.142 242.822,308.240 242.548,312.369 242.344 C 322.579 241.838,330.373 240.975,331.999 240.171 C 332.372 239.986,333.307 239.699,334.077 239.534 C 334.847 239.368,335.734 239.032,336.047 238.787 C 336.359 238.542,337.003 238.257,337.477 238.155 C 337.951 238.053,338.726 237.764,339.200 237.513 C 339.674 237.262,340.560 236.833,341.169 236.560 C 341.778 236.286,342.735 235.757,343.294 235.385 C 343.853 235.012,344.939 234.290,345.707 233.780 C 348.295 232.058,353.855 226.108,354.327 224.554 C 354.419 224.249,354.596 224.000,354.719 224.000 C 354.843 224.000,355.183 223.529,355.475 222.954 C 355.767 222.378,356.210 221.647,356.458 221.329 C 356.707 221.011,356.979 220.381,357.064 219.930 C 357.149 219.478,357.429 218.918,357.687 218.685 C 357.945 218.451,358.277 217.811,358.425 217.262 C 358.573 216.713,358.902 215.999,359.156 215.676 C 359.410 215.353,359.690 214.684,359.777 214.190 C 359.865 213.696,360.131 212.960,360.369 212.554 C 360.607 212.148,360.936 211.206,361.101 210.462 C 361.266 209.717,361.656 208.332,361.967 207.385 C 362.279 206.437,362.613 204.886,362.709 203.939 C 362.804 202.992,363.080 201.828,363.320 201.354 C 363.560 200.880,363.833 199.883,363.926 199.138 C 364.020 198.394,364.312 196.898,364.577 195.815 C 364.841 194.732,365.214 192.628,365.404 191.138 C 365.595 189.649,365.924 187.600,366.135 186.585 C 366.347 185.569,366.687 182.911,366.893 180.677 C 367.098 178.443,367.421 175.785,367.610 174.769 C 367.799 173.754,368.078 170.763,368.230 168.123 C 368.382 165.483,368.667 162.215,368.862 160.862 C 369.058 159.508,369.391 154.966,369.602 150.769 C 369.813 146.572,370.103 142.197,370.246 141.046 C 370.622 138.032,370.819 110.137,370.490 106.462 C 369.893 99.787,369.725 97.314,369.471 91.446 C 369.325 88.062,369.105 84.738,368.983 84.062 C 368.861 83.385,368.585 79.729,368.370 75.938 C 368.154 72.148,367.816 67.994,367.618 66.708 C 367.420 65.422,367.092 62.542,366.890 60.308 C 366.687 58.074,366.350 55.582,366.139 54.769 C 365.929 53.957,365.556 52.066,365.311 50.568 C 365.066 49.070,364.733 47.596,364.571 47.293 C 364.409 46.990,364.166 46.056,364.032 45.217 C 363.898 44.379,363.574 43.329,363.313 42.884 C 363.051 42.439,362.720 41.332,362.577 40.422 C 362.433 39.513,362.113 38.377,361.866 37.898 C 361.618 37.419,361.332 36.643,361.229 36.175 C 360.961 34.956,359.642 32.052,358.270 29.662 C 357.804 28.849,357.199 27.742,356.924 27.200 C 356.650 26.658,356.122 25.759,355.751 25.202 C 355.380 24.645,354.771 23.732,354.398 23.173 C 353.810 22.294,348.871 17.193,347.077 15.613 C 346.195 14.836,342.826 12.663,341.598 12.078 C 341.024 11.805,340.388 11.471,340.185 11.335 C 339.982 11.200,339.428 10.918,338.954 10.709 C 338.480 10.501,337.760 10.151,337.354 9.932 C 335.289 8.818,334.500 8.518,331.856 7.837 C 327.686 6.763,327.420 6.706,325.662 6.529 C 324.782 6.439,323.563 6.210,322.954 6.018 C 322.345 5.827,320.295 5.508,318.400 5.310 C 316.505 5.112,314.289 4.774,313.477 4.558 C 312.562 4.316,310.033 4.076,306.831 3.928 C 303.988 3.797,300.443 3.580,298.954 3.445 C 294.863 3.075,283.994 2.750,265.969 2.460 C 257.034 2.317,246.012 2.088,241.477 1.953 C 230.940 1.639,176.181 1.469,165.662 1.717 M161.232 73.105 C 160.859 73.803,160.888 173.988,161.262 174.438 C 161.689 174.952,162.844 174.829,163.612 174.188 C 163.995 173.869,165.748 172.807,167.508 171.829 C 169.268 170.851,171.317 169.681,172.062 169.228 C 174.520 167.733,180.235 164.488,181.785 163.706 C 182.326 163.433,183.268 162.820,183.877 162.344 C 184.486 161.869,185.538 161.205,186.215 160.869 C 188.180 159.894,191.551 158.047,192.549 157.397 C 193.053 157.069,193.562 156.800,193.680 156.800 C 193.797 156.800,194.093 156.579,194.338 156.309 C 194.582 156.038,195.347 155.537,196.037 155.195 C 196.728 154.853,197.957 154.191,198.769 153.724 C 199.582 153.256,200.503 152.760,200.817 152.621 C 201.131 152.482,201.750 152.092,202.194 151.754 C 202.637 151.415,203.113 151.138,203.252 151.138 C 203.390 151.138,203.815 150.889,204.196 150.585 C 204.577 150.280,205.315 149.809,205.835 149.538 C 207.508 148.667,213.753 145.168,214.769 144.532 C 215.311 144.194,216.142 143.675,216.615 143.379 C 217.698 142.703,221.939 140.238,222.797 139.785 C 224.310 138.988,226.417 137.780,227.446 137.122 C 228.055 136.733,230.488 135.338,232.852 134.022 C 235.215 132.706,237.666 131.284,238.297 130.861 C 239.918 129.775,244.344 127.246,246.400 126.231 C 246.738 126.064,247.366 125.646,247.795 125.302 C 248.224 124.958,248.862 124.477,249.212 124.233 C 250.050 123.650,249.564 122.887,247.754 121.947 C 247.077 121.595,245.803 120.876,244.923 120.349 C 244.043 119.821,242.956 119.226,242.508 119.024 C 242.060 118.823,241.395 118.425,241.031 118.140 C 240.667 117.855,239.483 117.118,238.400 116.501 C 237.317 115.885,235.348 114.759,234.025 113.998 C 232.703 113.238,231.198 112.387,230.682 112.107 C 230.165 111.828,229.420 111.381,229.025 111.115 C 228.631 110.848,227.920 110.436,227.446 110.199 C 226.972 109.962,225.975 109.390,225.231 108.928 C 224.486 108.466,223.545 107.919,223.138 107.713 C 221.921 107.097,220.331 106.175,219.368 105.527 C 218.870 105.191,218.171 104.766,217.817 104.581 C 216.067 103.671,214.981 103.052,214.646 102.775 C 214.443 102.606,213.309 101.959,212.126 101.336 C 210.943 100.713,209.669 99.992,209.295 99.733 C 208.325 99.061,207.429 98.544,202.585 95.861 C 200.215 94.549,198.014 93.296,197.692 93.076 C 195.787 91.774,192.404 89.794,187.105 86.880 C 186.724 86.670,185.869 86.155,185.206 85.735 C 183.942 84.935,178.622 81.920,177.354 81.284 C 176.948 81.081,176.394 80.726,176.123 80.496 C 175.647 80.092,174.373 79.342,172.062 78.107 C 171.452 77.782,169.879 76.884,168.566 76.112 C 162.424 72.501,161.712 72.209,161.232 73.105 M165.206 75.213 C 165.971 75.680,166.731 76.062,166.894 76.062 C 167.057 76.062,167.520 76.338,167.922 76.677 C 168.324 77.015,168.796 77.292,168.970 77.292 C 169.145 77.292,169.558 77.505,169.889 77.766 C 170.220 78.026,171.426 78.722,172.569 79.312 C 173.711 79.902,175.358 80.860,176.227 81.440 C 177.097 82.020,178.240 82.737,178.769 83.032 C 179.297 83.328,180.247 83.873,180.880 84.245 C 181.513 84.617,182.585 85.202,183.262 85.547 C 183.938 85.891,185.073 86.528,185.783 86.963 C 190.296 89.727,192.964 91.261,195.200 92.374 C 195.809 92.677,196.585 93.121,196.923 93.361 C 198.430 94.427,200.127 95.508,200.302 95.512 C 200.407 95.515,200.980 95.847,201.576 96.251 C 202.171 96.654,202.850 96.985,203.084 96.985 C 203.318 96.985,203.648 97.152,203.818 97.357 C 203.988 97.561,204.583 97.956,205.140 98.234 C 206.954 99.137,208.132 99.826,209.021 100.504 C 209.500 100.870,209.986 101.169,210.100 101.169 C 210.214 101.169,210.535 101.373,210.815 101.622 C 211.094 101.871,211.711 102.221,212.185 102.401 C 212.658 102.580,213.212 102.861,213.415 103.026 C 213.618 103.190,214.283 103.566,214.892 103.862 C 216.604 104.693,217.827 105.399,219.569 106.562 C 220.449 107.150,222.111 108.125,223.262 108.729 C 224.412 109.333,226.221 110.372,227.281 111.037 C 228.341 111.702,229.302 112.246,229.416 112.246 C 229.530 112.246,229.937 112.504,230.320 112.818 C 231.109 113.467,239.062 117.908,239.434 117.908 C 239.568 117.908,239.889 118.141,240.146 118.427 C 240.613 118.943,241.339 119.376,243.446 120.395 C 244.055 120.690,244.592 121.029,244.638 121.150 C 244.685 121.270,245.246 121.634,245.885 121.958 C 246.524 122.281,247.191 122.721,247.369 122.935 C 247.546 123.148,247.837 123.323,248.016 123.323 C 248.681 123.323,248.607 123.807,247.885 124.180 C 247.474 124.393,247.138 124.708,247.138 124.881 C 247.138 125.054,246.584 125.394,245.907 125.638 C 245.229 125.882,244.618 126.173,244.548 126.286 C 244.478 126.399,243.842 126.779,243.134 127.130 C 240.996 128.192,240.392 128.536,239.877 128.989 C 239.606 129.227,238.924 129.652,238.361 129.935 C 237.798 130.217,237.300 130.534,237.253 130.640 C 237.207 130.745,236.228 131.310,235.077 131.897 C 233.926 132.483,232.265 133.396,231.385 133.926 C 230.505 134.455,229.328 135.110,228.771 135.380 C 228.213 135.650,227.618 136.039,227.449 136.243 C 227.279 136.448,227.031 136.615,226.898 136.615 C 226.765 136.615,226.164 136.948,225.562 137.354 C 224.960 137.760,224.335 138.093,224.172 138.093 C 224.010 138.094,223.378 138.426,222.769 138.831 C 222.160 139.236,221.561 139.568,221.439 139.568 C 221.316 139.569,220.853 139.846,220.409 140.185 C 219.965 140.523,219.508 140.800,219.393 140.800 C 219.150 140.800,216.781 142.258,215.872 142.968 C 215.530 143.234,213.813 144.194,212.056 145.101 C 210.299 146.008,208.640 146.950,208.369 147.193 C 208.098 147.437,207.627 147.711,207.322 147.804 C 207.016 147.897,206.463 148.222,206.091 148.526 C 205.719 148.830,205.063 149.220,204.633 149.393 C 204.203 149.565,203.795 149.851,203.728 150.028 C 203.660 150.204,203.044 150.535,202.359 150.762 C 201.674 150.990,201.045 151.288,200.960 151.424 C 200.876 151.560,200.347 151.869,199.785 152.110 C 199.222 152.351,198.612 152.729,198.428 152.951 C 198.244 153.173,197.985 153.354,197.853 153.354 C 197.553 153.354,194.756 155.025,194.092 155.601 C 193.822 155.836,193.102 156.259,192.492 156.541 C 191.883 156.823,190.831 157.376,190.154 157.771 C 189.477 158.165,188.369 158.774,187.692 159.125 C 186.075 159.962,184.760 160.778,184.182 161.301 C 183.925 161.533,183.629 161.723,183.524 161.723 C 183.419 161.723,182.856 162.045,182.274 162.438 C 181.692 162.831,180.956 163.229,180.638 163.324 C 180.111 163.481,179.107 164.068,177.465 165.179 C 177.120 165.412,176.289 165.894,175.619 166.250 C 174.365 166.915,174.236 166.992,172.288 168.246 C 170.846 169.174,169.999 169.649,167.409 170.986 C 166.272 171.572,165.164 172.207,164.947 172.395 C 164.027 173.195,162.696 173.633,162.322 173.258 C 161.807 172.744,161.703 75.079,162.216 74.461 C 162.653 73.935,163.434 74.131,165.206 75.213 " stroke="none" fill="#ec7c7c" fill-rule="evenodd"></path><path id="path4" d="M157.770 3.293 C 157.694 3.371,154.427 3.442,150.509 3.451 C 146.590 3.460,142.222 3.569,140.800 3.693 C 139.378 3.817,135.778 3.980,132.800 4.056 C 129.822 4.132,123.452 4.296,118.646 4.421 C 113.840 4.545,108.047 4.657,105.772 4.670 C 103.250 4.684,100.801 4.840,99.495 5.071 C 98.317 5.278,96.246 5.536,94.892 5.643 L 92.431 5.838 94.277 5.906 C 98.917 6.079,117.118 5.847,118.031 5.603 C 118.572 5.459,120.012 5.306,121.231 5.265 C 128.273 5.024,135.622 4.597,136.369 4.386 C 138.719 3.719,255.270 3.970,266.585 4.666 C 274.878 5.176,282.581 5.446,290.338 5.498 C 299.226 5.558,306.152 5.950,307.765 6.485 C 308.334 6.674,310.074 6.957,311.631 7.114 C 313.188 7.271,315.126 7.509,315.938 7.644 C 316.751 7.778,318.800 7.993,320.492 8.122 C 322.674 8.288,324.071 8.534,325.292 8.969 C 327.652 9.809,330.979 10.588,332.583 10.677 C 333.940 10.753,334.659 11.024,335.754 11.874 C 336.092 12.137,336.702 12.492,337.108 12.662 C 337.514 12.832,338.590 13.535,339.500 14.223 C 340.409 14.912,342.109 15.950,343.278 16.529 C 345.499 17.629,346.900 18.791,347.899 20.361 C 348.809 21.788,349.601 22.538,351.086 23.376 C 352.053 23.922,352.491 24.335,352.607 24.810 C 352.697 25.177,353.194 26.142,353.712 26.954 C 354.229 27.766,354.840 29.011,355.068 29.720 C 355.297 30.429,355.576 31.067,355.690 31.137 C 355.803 31.207,356.339 32.072,356.881 33.060 C 357.518 34.221,358.102 34.963,358.532 35.159 L 359.196 35.462 359.026 34.531 C 358.932 34.019,358.698 33.355,358.505 33.055 C 358.312 32.755,357.977 31.980,357.760 31.332 C 357.543 30.684,357.178 29.932,356.949 29.662 C 356.719 29.391,356.379 28.865,356.193 28.492 C 356.007 28.120,355.757 27.815,355.637 27.815 C 355.517 27.815,355.198 27.317,354.928 26.708 C 354.659 26.098,354.351 25.600,354.243 25.600 C 354.136 25.600,353.927 25.333,353.778 25.007 C 353.363 24.097,351.126 21.106,350.307 20.368 C 350.120 20.199,349.345 19.441,348.584 18.683 C 347.823 17.925,346.868 17.118,346.462 16.888 C 345.574 16.387,344.140 15.402,343.631 14.943 C 343.428 14.760,342.897 14.464,342.452 14.287 C 342.007 14.109,341.539 13.770,341.412 13.533 C 341.286 13.296,340.875 13.026,340.499 12.933 C 340.123 12.840,339.594 12.564,339.323 12.320 C 339.052 12.076,338.388 11.738,337.846 11.570 C 337.305 11.401,336.525 11.061,336.114 10.814 C 335.703 10.566,334.651 10.203,333.776 10.006 C 332.901 9.810,331.686 9.478,331.077 9.270 C 329.244 8.643,325.510 7.884,321.600 7.343 C 319.491 7.051,317.740 6.685,317.516 6.490 C 317.249 6.257,315.939 6.072,313.413 5.911 C 310.935 5.754,309.226 5.515,308.267 5.194 C 306.965 4.758,305.865 4.699,296.492 4.569 C 286.392 4.428,279.705 4.288,272.000 4.055 C 267.714 3.925,254.876 3.558,252.800 3.506 C 247.854 3.381,157.880 3.179,157.770 3.293 M84.291 6.127 C 84.469 6.415,89.970 6.454,91.077 6.175 C 91.692 6.020,90.825 5.951,88.047 5.933 C 85.828 5.919,84.214 6.002,84.291 6.127 M78.400 6.538 C 77.723 6.724,75.065 6.990,72.492 7.129 C 65.266 7.517,63.738 7.666,62.439 8.108 C 61.029 8.587,67.831 8.593,73.798 8.118 C 75.464 7.985,77.625 7.877,78.600 7.877 C 80.751 7.877,81.750 7.613,82.735 6.784 L 83.484 6.154 81.557 6.176 C 80.498 6.188,79.077 6.351,78.400 6.538 M58.462 8.870 C 57.920 8.980,57.089 9.231,56.615 9.427 C 56.142 9.623,55.145 9.922,54.400 10.092 C 53.655 10.262,52.875 10.550,52.665 10.733 C 52.455 10.915,51.808 11.232,51.227 11.437 C 50.646 11.642,49.840 12.088,49.436 12.428 C 49.031 12.768,48.557 13.046,48.380 13.046 C 48.204 13.046,47.916 13.220,47.739 13.433 C 47.562 13.646,46.967 14.048,46.416 14.327 C 45.866 14.605,45.327 14.985,45.219 15.170 C 45.110 15.356,44.866 15.508,44.675 15.508 C 44.066 15.508,37.908 21.425,37.908 22.010 C 37.908 22.181,37.631 22.447,37.292 22.601 C 36.954 22.756,36.677 23.086,36.677 23.336 C 36.677 23.587,36.400 24.051,36.062 24.369 C 35.723 24.687,35.443 25.067,35.439 25.212 C 35.436 25.358,35.103 25.912,34.701 26.444 C 34.298 26.976,33.969 27.542,33.969 27.702 C 33.969 27.863,33.637 28.412,33.231 28.923 C 32.825 29.434,32.492 30.042,32.492 30.274 C 32.492 30.506,32.215 31.217,31.877 31.853 C 31.538 32.490,31.262 33.311,31.262 33.678 C 31.262 34.045,31.026 34.785,30.738 35.322 C 30.451 35.859,30.020 37.251,29.781 38.415 C 29.543 39.580,29.173 40.871,28.959 41.285 C 28.745 41.698,28.502 42.963,28.420 44.095 L 28.270 46.154 29.497 43.569 C 30.663 41.116,30.865 40.388,31.517 36.308 C 31.837 34.307,32.360 32.934,33.562 30.938 C 34.036 30.150,34.567 28.950,34.741 28.270 C 34.941 27.489,35.306 26.824,35.731 26.467 C 36.100 26.156,36.800 25.122,37.285 24.170 C 38.010 22.749,38.376 22.319,39.330 21.771 C 40.989 20.817,41.571 20.220,41.745 19.292 C 41.939 18.259,42.118 18.124,44.062 17.535 C 45.599 17.069,46.311 16.403,46.829 14.945 C 46.867 14.839,47.519 14.608,48.278 14.431 C 49.037 14.255,49.995 13.871,50.406 13.578 C 50.817 13.286,51.250 13.046,51.368 13.046 C 51.593 13.046,60.581 8.916,60.772 8.725 C 60.939 8.558,59.570 8.644,58.462 8.870 M359.514 38.199 C 359.602 40.158,360.205 42.075,361.195 43.539 C 361.653 44.216,361.838 44.904,361.964 46.400 C 362.072 47.672,362.347 48.849,362.742 49.723 C 363.458 51.308,364.051 54.378,364.057 56.539 C 364.061 57.855,365.590 67.124,365.917 67.815 C 366.192 68.396,365.713 62.650,365.271 60.064 C 365.005 58.508,364.720 56.071,364.637 54.648 C 364.550 53.172,364.332 51.757,364.127 51.352 C 363.930 50.962,363.606 49.467,363.406 48.029 C 363.147 46.167,362.908 45.271,362.574 44.914 C 362.281 44.601,362.016 43.782,361.868 42.735 C 361.737 41.812,361.465 40.874,361.264 40.651 C 361.063 40.428,360.736 39.542,360.538 38.682 C 359.960 36.177,359.412 35.918,359.514 38.199 M28.060 46.954 C 28.059 47.191,27.883 47.717,27.669 48.123 C 27.405 48.624,27.134 50.548,26.828 54.106 C 26.563 57.189,26.254 59.498,26.079 59.708 C 25.902 59.922,25.643 61.929,25.439 64.679 C 25.250 67.217,25.031 69.975,24.951 70.808 C 24.753 72.874,24.946 73.209,25.566 71.877 C 25.902 71.154,26.085 70.256,26.092 69.292 C 26.098 68.480,26.213 67.095,26.348 66.215 C 26.483 65.335,26.766 63.286,26.978 61.662 C 27.189 60.037,27.520 57.545,27.714 56.123 C 28.108 53.224,28.460 46.523,28.219 46.523 C 28.132 46.523,28.061 46.717,28.060 46.954 M366.105 69.908 C 366.105 70.652,366.151 70.957,366.207 70.585 C 366.263 70.212,366.263 69.603,366.207 69.231 C 366.151 68.858,366.105 69.163,366.105 69.908 M162.324 71.489 C 161.865 71.826,161.875 71.851,162.585 72.106 C 163.452 72.419,164.747 73.119,164.923 73.369 C 164.991 73.466,165.462 73.718,165.969 73.929 C 166.477 74.140,166.892 74.421,166.892 74.553 C 166.892 74.685,167.308 74.926,167.815 75.088 C 168.323 75.251,168.960 75.578,169.231 75.816 C 169.502 76.054,170.222 76.489,170.831 76.783 C 172.408 77.543,173.508 78.175,173.986 78.595 C 174.214 78.795,174.871 79.195,175.446 79.484 C 176.022 79.773,176.492 80.103,176.492 80.218 C 176.492 80.332,177.018 80.622,177.662 80.863 C 178.305 81.103,178.984 81.423,179.171 81.573 C 179.525 81.857,180.791 82.550,182.574 83.437 C 183.144 83.721,183.678 84.062,183.761 84.196 C 183.844 84.330,184.458 84.717,185.125 85.055 C 185.792 85.393,186.338 85.770,186.338 85.892 C 186.338 86.015,186.667 86.187,187.069 86.275 C 187.470 86.363,188.163 86.680,188.607 86.978 C 191.225 88.735,191.639 88.862,191.861 87.974 C 192.051 87.220,191.571 86.763,190.346 86.531 C 189.911 86.448,189.412 86.244,189.239 86.076 C 187.932 84.817,184.936 83.134,183.277 82.728 C 182.608 82.565,181.704 82.133,181.267 81.769 C 180.830 81.405,179.937 80.782,179.282 80.383 C 178.628 79.985,177.626 79.282,177.055 78.822 C 176.444 78.330,175.636 77.934,175.086 77.859 C 174.355 77.759,173.969 77.499,173.296 76.654 C 172.496 75.648,170.635 74.523,168.862 73.972 C 168.523 73.867,167.818 73.397,167.295 72.927 C 165.534 71.347,163.371 70.721,162.324 71.489 M366.425 81.354 C 366.559 91.233,366.623 92.793,367.020 95.754 C 368.242 104.865,368.477 110.280,368.247 124.062 C 368.068 134.766,367.717 141.390,366.362 159.662 C 366.281 160.762,366.296 163.082,366.396 164.817 C 366.683 169.798,367.198 167.655,367.494 160.246 C 367.660 156.079,367.834 154.155,368.115 153.364 C 369.089 150.633,369.378 96.777,368.439 93.169 C 367.865 90.963,367.781 90.052,367.507 83.077 C 367.368 79.557,367.140 76.325,366.999 75.896 C 366.859 75.466,366.643 74.414,366.521 73.557 C 366.377 72.550,366.343 75.306,366.425 81.354 M24.037 80.654 C 23.833 83.994,23.896 85.610,24.141 83.323 C 24.633 78.746,24.673 78.031,24.440 78.031 C 24.307 78.031,24.126 79.209,24.037 80.654 M160.329 79.754 C 160.329 80.769,160.372 81.185,160.425 80.677 C 160.479 80.169,160.479 79.338,160.425 78.831 C 160.372 78.323,160.329 78.738,160.329 79.754 M23.305 88.677 C 23.027 90.501,22.799 94.345,22.638 99.938 C 22.503 104.609,22.255 110.480,22.088 112.985 C 21.704 118.751,21.714 132.759,22.105 135.877 C 22.266 137.163,22.512 142.646,22.651 148.062 C 22.818 154.525,23.027 158.584,23.261 159.877 C 23.458 160.960,23.792 164.726,24.004 168.246 C 24.217 171.766,24.487 175.145,24.605 175.754 C 24.723 176.363,25.000 179.132,25.219 181.908 C 25.653 187.383,25.841 188.932,26.411 191.754 C 26.616 192.769,26.896 194.737,27.032 196.127 C 27.196 197.804,27.432 198.895,27.732 199.370 L 28.185 200.085 28.112 197.335 C 28.043 194.702,27.789 192.850,26.943 188.800 C 26.731 187.785,26.399 185.071,26.205 182.769 C 26.012 180.468,25.700 177.920,25.513 177.108 C 25.326 176.295,25.153 174.086,25.129 172.198 C 25.076 167.964,24.763 164.622,24.300 163.323 C 23.583 161.314,23.234 122.769,23.695 96.554 C 23.798 90.698,23.847 85.908,23.805 85.908 C 23.762 85.908,23.537 87.154,23.305 88.677 M192.862 89.108 C 192.483 89.270,192.462 89.323,192.770 89.337 C 192.990 89.346,193.321 89.535,193.505 89.757 C 193.689 89.978,194.284 90.368,194.827 90.622 C 195.789 91.072,196.659 91.633,198.378 92.913 C 198.840 93.257,199.377 93.538,199.571 93.538 C 199.765 93.538,200.224 93.752,200.592 94.014 C 200.959 94.275,201.715 94.672,202.272 94.894 C 202.829 95.117,203.342 95.447,203.411 95.627 C 203.480 95.806,203.871 96.027,204.280 96.117 C 204.688 96.207,205.319 96.513,205.681 96.798 C 206.310 97.292,206.636 97.486,208.838 98.669 C 209.367 98.953,210.031 99.393,210.315 99.645 C 210.599 99.898,211.218 100.252,211.692 100.431 C 212.166 100.610,212.775 100.947,213.046 101.181 C 213.317 101.414,213.815 101.686,214.154 101.785 C 214.492 101.885,214.948 102.123,215.168 102.315 C 215.845 102.908,218.382 104.371,219.006 104.527 C 219.331 104.609,219.759 104.922,219.956 105.223 C 220.153 105.523,220.761 105.917,221.308 106.097 C 221.854 106.278,222.362 106.523,222.435 106.641 C 222.508 106.760,223.140 107.128,223.838 107.459 C 224.536 107.790,225.606 108.392,226.215 108.797 C 226.825 109.202,227.782 109.747,228.342 110.008 C 228.903 110.269,229.441 110.611,229.538 110.769 C 229.636 110.927,230.230 111.274,230.858 111.539 C 231.486 111.805,232.111 112.156,232.246 112.319 C 232.382 112.483,233.378 113.057,234.462 113.596 C 236.233 114.477,237.199 115.049,239.313 116.474 C 239.680 116.721,240.087 116.923,240.217 116.923 C 240.348 116.923,240.963 117.311,241.583 117.785 C 242.204 118.258,242.849 118.648,243.018 118.651 C 243.186 118.653,243.811 118.985,244.406 119.389 C 245.002 119.793,245.635 120.123,245.812 120.123 C 245.989 120.123,246.333 120.330,246.575 120.583 C 246.817 120.836,247.458 121.182,248.000 121.352 C 248.542 121.523,249.194 121.842,249.450 122.062 C 249.897 122.445,249.903 122.437,249.597 121.846 C 249.421 121.508,249.200 121.065,249.105 120.862 C 249.011 120.658,248.485 120.326,247.937 120.122 C 247.390 119.918,246.737 119.571,246.486 119.349 C 246.236 119.128,245.048 118.419,243.846 117.773 C 242.645 117.127,241.305 116.243,240.870 115.807 C 240.133 115.071,236.269 112.985,235.642 112.985 C 235.489 112.985,235.049 112.816,234.666 112.610 C 234.283 112.405,233.665 112.131,233.292 112.001 C 232.920 111.872,232.409 111.426,232.156 111.011 C 231.586 110.073,230.226 109.046,229.552 109.045 C 229.274 109.045,228.691 108.828,228.256 108.563 C 227.822 108.298,226.862 107.906,226.123 107.691 C 225.384 107.476,224.634 107.124,224.455 106.909 C 224.040 106.408,222.594 105.497,220.559 104.453 C 219.676 104.000,218.622 103.264,218.215 102.818 C 217.714 102.267,216.792 101.745,215.343 101.191 C 214.078 100.708,212.931 100.086,212.527 99.665 C 212.153 99.274,211.668 98.954,211.450 98.954 C 211.232 98.954,210.284 98.446,209.342 97.824 C 207.301 96.478,206.008 95.766,204.677 95.256 C 203.313 94.735,202.172 94.049,201.094 93.104 C 200.590 92.662,199.529 91.957,198.735 91.538 C 197.942 91.119,196.934 90.507,196.496 90.178 C 195.789 89.647,193.916 88.833,193.508 88.879 C 193.423 88.888,193.132 88.991,192.862 89.108 M250.585 123.792 C 250.585 124.190,247.265 126.497,245.046 127.642 C 244.369 127.991,243.262 128.597,242.585 128.987 C 241.908 129.378,240.876 129.924,240.292 130.201 C 239.708 130.477,239.061 130.873,238.854 131.081 C 238.646 131.288,238.127 131.636,237.700 131.854 C 237.273 132.073,236.839 132.394,236.737 132.569 C 236.634 132.743,236.136 133.021,235.629 133.186 C 235.122 133.352,234.395 133.748,234.012 134.066 C 233.629 134.385,233.180 134.646,233.014 134.646 C 232.847 134.646,232.336 134.923,231.877 135.262 C 231.418 135.600,230.858 135.877,230.632 135.877 C 230.406 135.877,229.809 136.205,229.305 136.606 C 228.800 137.006,228.148 137.407,227.855 137.495 C 227.563 137.584,227.100 137.860,226.827 138.109 C 226.555 138.358,225.925 138.731,225.429 138.938 C 224.932 139.146,224.451 139.437,224.359 139.586 C 224.267 139.735,223.733 140.077,223.173 140.347 C 221.344 141.227,220.163 141.898,219.479 142.445 C 219.110 142.740,218.490 143.051,218.101 143.136 C 217.713 143.222,217.337 143.443,217.266 143.628 C 217.195 143.813,216.660 144.199,216.076 144.487 C 215.493 144.774,214.462 145.333,213.785 145.730 C 213.108 146.126,212.055 146.702,211.446 147.010 C 210.837 147.317,210.228 147.705,210.092 147.870 C 209.957 148.036,209.383 148.333,208.817 148.530 C 208.251 148.728,207.565 149.112,207.292 149.385 C 207.020 149.657,206.408 149.953,205.933 150.042 C 205.417 150.139,204.914 150.441,204.683 150.794 C 204.470 151.119,204.077 151.385,203.808 151.385 C 203.540 151.385,203.086 151.653,202.800 151.982 C 202.515 152.311,201.939 152.721,201.520 152.895 C 201.102 153.068,200.572 153.397,200.343 153.626 C 200.114 153.855,199.597 154.115,199.194 154.203 C 198.792 154.292,198.207 154.635,197.896 154.967 C 197.584 155.298,197.087 155.569,196.791 155.569 C 196.495 155.569,195.834 155.902,195.323 156.308 C 194.812 156.714,194.307 157.046,194.200 157.046 C 194.094 157.046,193.694 157.308,193.311 157.628 C 192.928 157.948,192.338 158.295,192.000 158.400 C 191.662 158.505,191.072 158.852,190.689 159.172 C 190.306 159.492,189.850 159.754,189.676 159.754 C 189.501 159.754,189.074 159.978,188.726 160.251 C 188.378 160.525,187.633 160.911,187.071 161.110 C 186.508 161.308,185.717 161.749,185.313 162.089 C 184.908 162.429,184.425 162.708,184.239 162.708 C 184.054 162.708,183.799 162.890,183.674 163.114 C 183.459 163.498,182.720 163.939,180.203 165.184 C 179.604 165.480,178.897 165.925,178.631 166.172 C 178.366 166.419,177.833 166.691,177.446 166.776 C 177.060 166.861,176.683 167.029,176.608 167.150 C 176.533 167.272,175.952 167.601,175.316 167.882 C 174.680 168.163,173.937 168.591,173.665 168.834 C 173.392 169.076,172.809 169.416,172.369 169.590 C 171.929 169.764,171.569 170.009,171.569 170.136 C 171.569 170.263,171.085 170.580,170.494 170.842 C 169.903 171.103,169.285 171.479,169.121 171.677 C 168.956 171.875,168.416 172.166,167.919 172.325 C 167.422 172.484,166.794 172.809,166.523 173.047 C 166.252 173.285,165.615 173.626,165.108 173.805 C 164.600 173.983,164.185 174.215,164.185 174.320 C 164.185 174.613,162.800 175.262,162.173 175.262 L 161.614 175.262 162.157 175.804 C 163.025 176.673,167.631 175.367,167.631 174.251 C 167.631 173.970,169.917 172.601,170.708 172.409 C 171.114 172.311,172.111 171.654,172.923 170.950 C 173.998 170.018,174.675 169.628,175.409 169.515 C 177.466 169.199,179.948 167.799,181.714 165.960 C 183.092 164.525,183.568 164.190,184.573 163.949 C 185.237 163.789,186.320 163.281,186.982 162.819 C 187.643 162.356,188.738 161.696,189.415 161.351 C 190.092 161.007,191.023 160.451,191.483 160.116 C 191.943 159.782,192.663 159.505,193.083 159.501 C 193.691 159.496,194.245 159.117,195.815 157.631 C 196.898 156.607,198.228 155.543,198.769 155.267 C 199.311 154.990,200.126 154.440,200.581 154.043 C 201.527 153.218,202.211 152.920,203.909 152.598 C 205.420 152.311,206.673 151.547,207.152 150.621 C 207.478 149.990,207.647 149.908,208.561 149.938 C 210.555 150.003,211.592 149.517,213.645 147.555 C 214.700 146.547,215.670 145.723,215.802 145.723 C 215.934 145.723,216.974 145.152,218.113 144.454 C 219.593 143.548,220.407 143.198,220.963 143.230 C 221.578 143.265,221.855 143.115,222.278 142.522 C 222.593 142.079,223.438 141.484,224.330 141.077 C 225.164 140.696,226.317 139.988,226.893 139.504 C 227.469 139.019,228.355 138.496,228.862 138.341 C 230.479 137.848,231.720 137.065,232.985 135.740 C 234.009 134.668,234.433 134.406,235.513 134.181 C 236.812 133.910,238.461 133.135,239.911 132.114 C 241.053 131.310,242.216 130.653,243.303 130.200 C 244.305 129.782,245.169 128.926,245.169 128.351 C 245.169 127.853,245.851 127.585,247.624 127.382 C 249.705 127.145,250.831 126.160,250.831 124.578 C 250.831 124.023,250.775 123.569,250.708 123.569 C 250.640 123.569,250.585 123.670,250.585 123.792 M160.160 164.123 C 160.095 164.360,159.969 165.089,159.879 165.744 C 159.790 166.398,159.561 167.376,159.371 167.917 C 158.648 169.965,158.644 172.570,159.362 173.525 C 159.713 173.991,160.000 174.573,160.000 174.817 C 160.000 175.102,160.182 175.262,160.506 175.262 C 160.951 175.262,160.974 175.206,160.691 174.802 C 160.447 174.454,160.379 173.059,160.411 169.018 C 160.451 163.879,160.416 163.196,160.160 164.123 M365.712 172.480 C 365.469 173.265,365.116 175.403,364.926 177.231 C 364.737 179.058,364.469 181.108,364.332 181.785 C 364.194 182.462,363.973 183.735,363.842 184.615 C 363.711 185.495,363.309 187.600,362.949 189.292 C 362.492 191.442,362.242 193.555,362.118 196.308 C 361.985 199.272,361.843 200.398,361.545 200.862 C 361.328 201.200,360.984 202.031,360.782 202.708 C 360.580 203.385,360.241 204.344,360.028 204.840 C 359.816 205.337,359.516 206.555,359.363 207.548 C 359.209 208.541,358.880 209.754,358.630 210.244 C 358.381 210.733,358.044 211.675,357.881 212.336 C 357.717 212.997,357.324 213.852,357.007 214.234 C 356.681 214.628,356.431 215.256,356.431 215.680 C 356.431 216.266,356.110 216.755,354.967 217.913 C 353.778 219.116,353.453 219.623,353.242 220.609 C 352.885 222.274,352.672 222.612,350.635 224.750 C 349.657 225.777,348.609 227.101,348.308 227.692 C 347.672 228.938,347.131 229.451,345.600 230.256 C 344.991 230.577,344.281 231.073,344.023 231.358 C 343.765 231.643,343.401 231.877,343.214 231.877 C 342.495 231.877,340.975 232.871,340.133 233.890 C 339.104 235.137,338.050 235.719,336.427 235.936 C 335.549 236.053,335.055 236.296,334.458 236.903 C 333.706 237.668,333.538 237.722,331.446 237.864 C 330.228 237.947,328.687 238.185,328.022 238.392 C 327.358 238.600,326.472 238.775,326.053 238.781 C 325.635 238.788,324.351 239.108,323.200 239.491 L 321.108 240.189 324.554 240.061 C 326.642 239.984,328.250 239.807,328.634 239.614 C 328.982 239.438,330.246 239.110,331.442 238.886 C 332.638 238.662,334.070 238.273,334.624 238.022 C 335.178 237.771,335.915 237.507,336.262 237.436 C 336.610 237.364,337.156 237.078,337.477 236.800 C 337.798 236.522,338.344 236.233,338.692 236.158 C 339.797 235.919,340.638 235.534,340.762 235.209 C 340.829 235.036,341.197 234.816,341.580 234.721 C 341.963 234.626,342.498 234.345,342.769 234.097 C 343.040 233.850,343.605 233.442,344.024 233.193 C 344.444 232.943,345.109 232.519,345.501 232.252 C 346.535 231.547,351.740 226.208,352.137 225.445 C 352.323 225.089,352.634 224.737,352.829 224.662 C 353.025 224.587,353.258 224.192,353.347 223.783 C 353.437 223.375,353.835 222.632,354.232 222.133 C 354.629 221.633,354.954 221.089,354.954 220.923 C 354.954 220.757,355.286 220.203,355.692 219.692 C 356.098 219.181,356.431 218.602,356.431 218.404 C 356.431 218.207,356.657 217.727,356.934 217.339 C 357.211 216.950,357.607 216.047,357.814 215.331 C 358.022 214.616,358.333 213.920,358.506 213.784 C 358.679 213.648,358.955 212.762,359.118 211.814 C 359.282 210.867,359.577 209.844,359.773 209.541 C 359.970 209.238,360.361 208.019,360.642 206.833 C 360.923 205.647,361.250 204.559,361.369 204.415 C 361.487 204.271,361.695 203.183,361.829 201.997 C 361.990 200.580,362.252 199.554,362.593 199.002 C 362.986 198.366,363.162 197.520,363.318 195.512 C 363.432 194.054,363.709 192.363,363.936 191.754 C 364.171 191.120,364.451 189.223,364.591 187.323 C 364.725 185.495,365.042 182.726,365.296 181.169 C 366.289 175.083,366.542 169.796,365.712 172.480 M28.472 201.969 C 28.557 202.646,28.790 203.450,28.989 203.757 C 29.189 204.063,29.514 205.170,29.711 206.218 C 29.908 207.266,30.227 208.298,30.419 208.511 C 30.611 208.725,30.896 209.556,31.051 210.358 C 31.206 211.159,31.466 211.982,31.629 212.185 C 32.021 212.673,32.233 213.289,32.510 214.747 C 32.650 215.481,32.933 216.090,33.232 216.299 C 33.502 216.488,33.723 216.855,33.723 217.113 C 33.723 217.371,34.039 217.947,34.425 218.391 C 34.810 218.836,35.281 219.490,35.471 219.844 C 36.964 222.633,37.756 223.786,39.508 225.724 C 41.318 227.726,44.047 230.400,44.281 230.400 C 44.409 230.400,44.716 230.656,44.964 230.969 C 45.366 231.475,46.385 232.197,49.231 233.989 C 49.705 234.288,50.507 234.663,51.013 234.823 C 51.520 234.983,52.019 235.250,52.121 235.415 C 52.224 235.581,52.806 235.860,53.415 236.036 C 54.025 236.211,54.745 236.552,55.015 236.793 C 55.286 237.034,55.943 237.309,56.475 237.404 C 57.007 237.499,57.893 237.785,58.444 238.039 C 58.995 238.293,60.844 238.725,62.553 238.998 C 64.261 239.272,65.926 239.597,66.251 239.721 C 66.577 239.844,67.948 240.022,69.299 240.115 C 71.607 240.273,75.145 240.846,75.616 241.137 C 75.733 241.209,79.082 241.479,83.059 241.738 C 87.035 241.997,90.550 242.308,90.869 242.429 C 91.795 242.781,99.008 242.956,123.692 243.225 C 136.418 243.364,147.717 243.578,148.800 243.701 C 151.933 244.056,167.262 244.402,186.708 244.557 C 196.591 244.636,207.225 244.778,210.338 244.873 C 213.452 244.968,220.320 244.973,225.600 244.884 C 230.880 244.795,240.462 244.658,246.892 244.579 C 261.914 244.395,266.390 244.229,268.062 243.792 C 268.959 243.558,271.945 243.355,276.923 243.189 C 284.534 242.936,288.991 242.642,291.446 242.231 C 292.191 242.107,296.068 241.883,300.062 241.734 C 307.233 241.467,309.635 241.272,313.969 240.607 C 316.048 240.288,315.712 240.274,308.528 240.379 C 304.316 240.441,300.273 240.607,299.543 240.748 C 296.399 241.355,294.296 241.509,286.154 241.726 C 281.415 241.853,276.265 242.069,274.708 242.207 C 261.199 243.405,227.077 243.811,185.354 243.271 C 172.695 243.108,156.800 242.910,150.031 242.832 C 142.758 242.749,137.073 242.579,136.135 242.416 C 135.017 242.222,131.339 242.194,123.704 242.319 C 99.796 242.713,101.729 242.733,100.020 242.068 C 98.599 241.515,98.175 241.476,93.496 241.463 C 90.744 241.455,87.329 241.350,85.908 241.228 C 84.486 241.106,81.606 240.888,79.508 240.743 C 74.970 240.430,72.641 240.112,71.138 239.599 C 70.473 239.372,69.025 239.205,67.510 239.180 C 66.124 239.157,64.988 239.054,64.987 238.950 C 64.982 238.532,63.334 237.799,62.047 237.642 C 61.293 237.550,60.236 237.252,59.697 236.980 C 59.158 236.708,57.732 236.338,56.528 236.159 C 54.203 235.811,53.306 235.399,52.891 234.489 C 52.750 234.180,52.284 233.722,51.856 233.471 C 51.427 233.220,50.783 232.704,50.424 232.323 C 50.065 231.942,49.582 231.631,49.350 231.631 C 49.118 231.631,48.526 231.427,48.034 231.178 C 47.541 230.929,46.702 230.514,46.167 230.255 C 45.633 229.996,44.636 229.228,43.952 228.547 C 43.268 227.867,42.196 226.896,41.571 226.391 C 40.880 225.832,40.116 224.869,39.621 223.936 C 38.606 222.021,37.098 219.954,36.038 219.024 C 35.231 218.315,35.103 217.943,34.584 214.793 C 34.474 214.132,34.116 213.517,33.433 212.824 C 32.085 211.452,31.055 209.339,30.881 207.584 C 30.501 203.742,30.269 202.868,29.455 202.187 C 29.027 201.829,28.596 201.357,28.497 201.138 C 28.398 200.918,28.387 201.292,28.472 201.969 " stroke="none" fill="#c4191f" fill-rule="evenodd"></path></g></svg>